<svg xmlns="http://www.w3.org/2000/svg" xmlns:xlink="http://www.w3.org/1999/xlink" fill="none" version="1.1" width="772" height="523" viewBox="0 0 772 523"><defs><clipPath id="master_svg0_464_0542"><rect x="0" y="0" width="772" height="523" rx="0"/></clipPath></defs><g clip-path="url(#master_svg0_464_0542)"><g style="mix-blend-mode:passthrough"><g><ellipse cx="19.813340187072754" cy="19.813340187072754" rx="6.813340187072754" ry="6.813340187072754" fill="#E6E6E6" fill-opacity="1"/></g><g><ellipse cx="54.301621437072754" cy="19.813340187072754" rx="6.813340187072754" ry="6.813340187072754" fill="#E6E6E6" fill-opacity="1"/></g><g><ellipse cx="88.78990268707275" cy="19.813340187072754" rx="6.813340187072754" ry="6.813340187072754" fill="#E6E6E6" fill-opacity="1"/></g><g><ellipse cx="123.28013706207275" cy="19.813340187072754" rx="6.813340187072754" ry="6.813340187072754" fill="#E6E6E6" fill-opacity="1"/></g><g><ellipse cx="157.76841831207275" cy="19.813340187072754" rx="6.813340187072754" ry="6.813340187072754" fill="#E6E6E6" fill-opacity="1"/></g><g><ellipse cx="192.25865268707275" cy="19.813340187072754" rx="6.813340187072754" ry="6.813340187072754" fill="#E6E6E6" fill-opacity="1"/></g><g><ellipse cx="226.74693393707275" cy="19.813340187072754" rx="6.813340187072754" ry="6.813340187072754" fill="#E6E6E6" fill-opacity="1"/></g><g><ellipse cx="261.23521518707275" cy="19.813340187072754" rx="6.813340187072754" ry="6.813340187072754" fill="#E6E6E6" fill-opacity="1"/></g><g><ellipse cx="295.72544956207275" cy="19.813340187072754" rx="6.813340187072754" ry="6.813340187072754" fill="#E6E6E6" fill-opacity="1"/></g><g><ellipse cx="330.21373081207275" cy="19.813340187072754" rx="6.813340187072754" ry="6.813340187072754" fill="#E6E6E6" fill-opacity="1"/></g><g><ellipse cx="19.813340187072754" cy="54.736191749572754" rx="6.813340187072754" ry="6.813340187072754" fill="#E6E6E6" fill-opacity="1"/></g><g><ellipse cx="54.301621437072754" cy="54.736191749572754" rx="6.813340187072754" ry="6.813340187072754" fill="#E6E6E6" fill-opacity="1"/></g><g><ellipse cx="88.78990268707275" cy="54.736191749572754" rx="6.813340187072754" ry="6.813340187072754" fill="#E6E6E6" fill-opacity="1"/></g><g><ellipse cx="123.28013706207275" cy="54.736191749572754" rx="6.813340187072754" ry="6.813340187072754" fill="#2DD4BF" fill-opacity="1"/></g><g><ellipse cx="157.76841831207275" cy="54.736191749572754" rx="6.813340187072754" ry="6.813340187072754" fill="#E6E6E6" fill-opacity="1"/></g><g><ellipse cx="192.25865268707275" cy="54.736191749572754" rx="6.813340187072754" ry="6.813340187072754" fill="#E6E6E6" fill-opacity="1"/></g><g><ellipse cx="226.74693393707275" cy="54.736191749572754" rx="6.813340187072754" ry="6.813340187072754" fill="#E6E6E6" fill-opacity="1"/></g><g><ellipse cx="261.23521518707275" cy="54.736191749572754" rx="6.813340187072754" ry="6.813340187072754" fill="#E6E6E6" fill-opacity="1"/></g><g><ellipse cx="295.72544956207275" cy="54.736191749572754" rx="6.813340187072754" ry="6.813340187072754" fill="#E6E6E6" fill-opacity="1"/></g><g><ellipse cx="330.21373081207275" cy="54.736191749572754" rx="6.813340187072754" ry="6.813340187072754" fill="#E6E6E6" fill-opacity="1"/></g><g><ellipse cx="19.813340187072754" cy="89.65806674957275" rx="6.813340187072754" ry="6.813340187072754" fill="#E6E6E6" fill-opacity="1"/></g><g><ellipse cx="54.301621437072754" cy="89.65806674957275" rx="6.813340187072754" ry="6.813340187072754" fill="#E6E6E6" fill-opacity="1"/></g><g><ellipse cx="88.78990268707275" cy="89.65806674957275" rx="6.813340187072754" ry="6.813340187072754" fill="#E6E6E6" fill-opacity="1"/></g><g><ellipse cx="123.28013706207275" cy="89.65806674957275" rx="6.813340187072754" ry="6.813340187072754" fill="#E6E6E6" fill-opacity="1"/></g><g><ellipse cx="157.76841831207275" cy="89.65806674957275" rx="6.813340187072754" ry="6.813340187072754" fill="#E6E6E6" fill-opacity="1"/></g><g><ellipse cx="192.25865268707275" cy="89.65806674957275" rx="6.813340187072754" ry="6.813340187072754" fill="#E6E6E6" fill-opacity="1"/></g><g><ellipse cx="226.74693393707275" cy="89.65806674957275" rx="6.813340187072754" ry="6.813340187072754" fill="#E6E6E6" fill-opacity="1"/></g><g><ellipse cx="261.23521518707275" cy="89.65806674957275" rx="6.813340187072754" ry="6.813340187072754" fill="#E6E6E6" fill-opacity="1"/></g><g><ellipse cx="295.72544956207275" cy="89.65806674957275" rx="6.813340187072754" ry="6.813340187072754" fill="#E6E6E6" fill-opacity="1"/></g><g><ellipse cx="330.21373081207275" cy="89.65806674957275" rx="6.813340187072754" ry="6.813340187072754" fill="#E6E6E6" fill-opacity="1"/></g><g><ellipse cx="19.813340187072754" cy="124.57994174957275" rx="6.813340187072754" ry="6.813340187072754" fill="#E6E6E6" fill-opacity="1"/></g><g><ellipse cx="54.301621437072754" cy="124.57994174957275" rx="6.813340187072754" ry="6.813340187072754" fill="#E6E6E6" fill-opacity="1"/></g><g><ellipse cx="88.78990268707275" cy="124.57994174957275" rx="6.813340187072754" ry="6.813340187072754" fill="#E6E6E6" fill-opacity="1"/></g><g><ellipse cx="123.28013706207275" cy="124.57994174957275" rx="6.813340187072754" ry="6.813340187072754" fill="#E6E6E6" fill-opacity="1"/></g><g><ellipse cx="157.76841831207275" cy="124.57994174957275" rx="6.813340187072754" ry="6.813340187072754" fill="#E6E6E6" fill-opacity="1"/></g><g><ellipse cx="192.25865268707275" cy="124.57994174957275" rx="6.813340187072754" ry="6.813340187072754" fill="#E6E6E6" fill-opacity="1"/></g><g><ellipse cx="226.74693393707275" cy="124.57994174957275" rx="6.813340187072754" ry="6.813340187072754" fill="#E6E6E6" fill-opacity="1"/></g><g><ellipse cx="261.23521518707275" cy="124.57994174957275" rx="6.813340187072754" ry="6.813340187072754" fill="#E6E6E6" fill-opacity="1"/></g><g><ellipse cx="295.72544956207275" cy="124.57994174957275" rx="6.813340187072754" ry="6.813340187072754" fill="#E6E6E6" fill-opacity="1"/></g><g><ellipse cx="330.21373081207275" cy="124.57994174957275" rx="6.813340187072754" ry="6.813340187072754" fill="#E6E6E6" fill-opacity="1"/></g><g><ellipse cx="19.813340187072754" cy="159.50181674957275" rx="6.813340187072754" ry="6.813340187072754" fill="#E6E6E6" fill-opacity="1"/></g><g><ellipse cx="54.301621437072754" cy="159.50181674957275" rx="6.813340187072754" ry="6.813340187072754" fill="#2DD4BF" fill-opacity="1"/></g><g><ellipse cx="88.78990268707275" cy="159.50181674957275" rx="6.813340187072754" ry="6.813340187072754" fill="#E6E6E6" fill-opacity="1"/></g><g><ellipse cx="123.28013706207275" cy="159.50181674957275" rx="6.813340187072754" ry="6.813340187072754" fill="#E6E6E6" fill-opacity="1"/></g><g><ellipse cx="157.76841831207275" cy="159.50181674957275" rx="6.813340187072754" ry="6.813340187072754" fill="#E6E6E6" fill-opacity="1"/></g><g><ellipse cx="192.25865268707275" cy="159.50181674957275" rx="6.813340187072754" ry="6.813340187072754" fill="#E6E6E6" fill-opacity="1"/></g><g><ellipse cx="226.74693393707275" cy="159.50181674957275" rx="6.813340187072754" ry="6.813340187072754" fill="#E6E6E6" fill-opacity="1"/></g><g><ellipse cx="261.23521518707275" cy="159.50181674957275" rx="6.813340187072754" ry="6.813340187072754" fill="#E6E6E6" fill-opacity="1"/></g><g><ellipse cx="295.72544956207275" cy="159.50181674957275" rx="6.813340187072754" ry="6.813340187072754" fill="#E6E6E6" fill-opacity="1"/></g><g><ellipse cx="330.21373081207275" cy="159.50181674957275" rx="6.813340187072754" ry="6.813340187072754" fill="#E6E6E6" fill-opacity="1"/></g><g><ellipse cx="19.813340187072754" cy="194.42369174957275" rx="6.813340187072754" ry="6.813340187072754" fill="#E6E6E6" fill-opacity="1"/></g><g><ellipse cx="54.301621437072754" cy="194.42369174957275" rx="6.813340187072754" ry="6.813340187072754" fill="#E6E6E6" fill-opacity="1"/></g><g><ellipse cx="88.78990268707275" cy="194.42369174957275" rx="6.813340187072754" ry="6.813340187072754" fill="#E6E6E6" fill-opacity="1"/></g><g><ellipse cx="123.28013706207275" cy="194.42369174957275" rx="6.813340187072754" ry="6.813340187072754" fill="#E6E6E6" fill-opacity="1"/></g><g><ellipse cx="157.76841831207275" cy="194.42369174957275" rx="6.813340187072754" ry="6.813340187072754" fill="#E6E6E6" fill-opacity="1"/></g><g><ellipse cx="192.25865268707275" cy="194.42369174957275" rx="6.813340187072754" ry="6.813340187072754" fill="#E6E6E6" fill-opacity="1"/></g><g><ellipse cx="226.74693393707275" cy="194.42369174957275" rx="6.813340187072754" ry="6.813340187072754" fill="#E6E6E6" fill-opacity="1"/></g><g><ellipse cx="261.23521518707275" cy="194.42369174957275" rx="6.813340187072754" ry="6.813340187072754" fill="#E6E6E6" fill-opacity="1"/></g><g><ellipse cx="295.72544956207275" cy="194.42369174957275" rx="6.813340187072754" ry="6.813340187072754" fill="#E6E6E6" fill-opacity="1"/></g><g><ellipse cx="330.21373081207275" cy="194.42369174957275" rx="6.813340187072754" ry="6.813340187072754" fill="#E6E6E6" fill-opacity="1"/></g><g><ellipse cx="19.813340187072754" cy="229.34556674957275" rx="6.813340187072754" ry="6.813340187072754" fill="#E6E6E6" fill-opacity="1"/></g><g><ellipse cx="54.301621437072754" cy="229.34556674957275" rx="6.813340187072754" ry="6.813340187072754" fill="#E6E6E6" fill-opacity="1"/></g><g><ellipse cx="88.78990268707275" cy="229.34556674957275" rx="6.813340187072754" ry="6.813340187072754" fill="#2DD4BF" fill-opacity="1"/></g><g><ellipse cx="123.28013706207275" cy="229.34556674957275" rx="6.813340187072754" ry="6.813340187072754" fill="#E6E6E6" fill-opacity="1"/></g><g><ellipse cx="157.76841831207275" cy="229.34556674957275" rx="6.813340187072754" ry="6.813340187072754" fill="#E6E6E6" fill-opacity="1"/></g><g><ellipse cx="192.25865268707275" cy="229.34556674957275" rx="6.813340187072754" ry="6.813340187072754" fill="#E6E6E6" fill-opacity="1"/></g><g><ellipse cx="226.74693393707275" cy="229.34556674957275" rx="6.813340187072754" ry="6.813340187072754" fill="#E6E6E6" fill-opacity="1"/></g><g><ellipse cx="261.23521518707275" cy="229.34556674957275" rx="6.813340187072754" ry="6.813340187072754" fill="#E6E6E6" fill-opacity="1"/></g><g><ellipse cx="295.72544956207275" cy="229.34556674957275" rx="6.813340187072754" ry="6.813340187072754" fill="#E6E6E6" fill-opacity="1"/></g><g><ellipse cx="330.21373081207275" cy="229.34556674957275" rx="6.813340187072754" ry="6.813340187072754" fill="#E6E6E6" fill-opacity="1"/></g><g><ellipse cx="19.813340187072754" cy="264.26744174957275" rx="6.813340187072754" ry="6.813340187072754" fill="#E6E6E6" fill-opacity="1"/></g><g><ellipse cx="54.301621437072754" cy="264.26744174957275" rx="6.813340187072754" ry="6.813340187072754" fill="#E6E6E6" fill-opacity="1"/></g><g><ellipse cx="88.78990268707275" cy="264.26744174957275" rx="6.813340187072754" ry="6.813340187072754" fill="#E6E6E6" fill-opacity="1"/></g><g><ellipse cx="123.28013706207275" cy="264.26744174957275" rx="6.813340187072754" ry="6.813340187072754" fill="#E6E6E6" fill-opacity="1"/></g><g><ellipse cx="157.76841831207275" cy="264.26744174957275" rx="6.813340187072754" ry="6.813340187072754" fill="#E6E6E6" fill-opacity="1"/></g><g><ellipse cx="192.25865268707275" cy="264.26744174957275" rx="6.813340187072754" ry="6.813340187072754" fill="#E6E6E6" fill-opacity="1"/></g><g><ellipse cx="226.74693393707275" cy="264.26744174957275" rx="6.813340187072754" ry="6.813340187072754" fill="#E6E6E6" fill-opacity="1"/></g><g><ellipse cx="261.23521518707275" cy="264.26744174957275" rx="6.813340187072754" ry="6.813340187072754" fill="#E6E6E6" fill-opacity="1"/></g><g><ellipse cx="295.72544956207275" cy="264.26744174957275" rx="6.813340187072754" ry="6.813340187072754" fill="#E6E6E6" fill-opacity="1"/></g><g><ellipse cx="330.21373081207275" cy="264.26744174957275" rx="6.813340187072754" ry="6.813340187072754" fill="#E6E6E6" fill-opacity="1"/></g><g><ellipse cx="19.813340187072754" cy="299.19029331207275" rx="6.813340187072754" ry="6.813340187072754" fill="#E6E6E6" fill-opacity="1"/></g><g><ellipse cx="54.301621437072754" cy="299.19029331207275" rx="6.813340187072754" ry="6.813340187072754" fill="#E6E6E6" fill-opacity="1"/></g><g><ellipse cx="88.78990268707275" cy="299.19029331207275" rx="6.813340187072754" ry="6.813340187072754" fill="#E6E6E6" fill-opacity="1"/></g><g><ellipse cx="123.28013706207275" cy="299.19029331207275" rx="6.813340187072754" ry="6.813340187072754" fill="#E6E6E6" fill-opacity="1"/></g><g><ellipse cx="157.76841831207275" cy="299.19029331207275" rx="6.813340187072754" ry="6.813340187072754" fill="#E6E6E6" fill-opacity="1"/></g><g><ellipse cx="192.25865268707275" cy="299.19029331207275" rx="6.813340187072754" ry="6.813340187072754" fill="#E6E6E6" fill-opacity="1"/></g><g><ellipse cx="226.74693393707275" cy="299.19029331207275" rx="6.813340187072754" ry="6.813340187072754" fill="#E6E6E6" fill-opacity="1"/></g><g><ellipse cx="261.23521518707275" cy="299.19029331207275" rx="6.813340187072754" ry="6.813340187072754" fill="#E6E6E6" fill-opacity="1"/></g><g><ellipse cx="295.72544956207275" cy="299.19029331207275" rx="6.813340187072754" ry="6.813340187072754" fill="#E6E6E6" fill-opacity="1"/></g><g><ellipse cx="330.21373081207275" cy="299.19029331207275" rx="6.813340187072754" ry="6.813340187072754" fill="#E6E6E6" fill-opacity="1"/></g><g><ellipse cx="19.813340187072754" cy="334.11216831207275" rx="6.813340187072754" ry="6.813340187072754" fill="#E6E6E6" fill-opacity="1"/></g><g><ellipse cx="54.301621437072754" cy="334.11216831207275" rx="6.813340187072754" ry="6.813340187072754" fill="#E6E6E6" fill-opacity="1"/></g><g><ellipse cx="88.78990268707275" cy="334.11216831207275" rx="6.813340187072754" ry="6.813340187072754" fill="#E6E6E6" fill-opacity="1"/></g><g><ellipse cx="123.28013706207275" cy="334.11216831207275" rx="6.813340187072754" ry="6.813340187072754" fill="#E6E6E6" fill-opacity="1"/></g><g><ellipse cx="157.76841831207275" cy="334.11216831207275" rx="6.813340187072754" ry="6.813340187072754" fill="#E6E6E6" fill-opacity="1"/></g><g><ellipse cx="192.25865268707275" cy="334.11216831207275" rx="6.813340187072754" ry="6.813340187072754" fill="#E6E6E6" fill-opacity="1"/></g><g><ellipse cx="226.74693393707275" cy="334.11216831207275" rx="6.813340187072754" ry="6.813340187072754" fill="#E6E6E6" fill-opacity="1"/></g><g><ellipse cx="261.23521518707275" cy="334.11216831207275" rx="6.813340187072754" ry="6.813340187072754" fill="#E6E6E6" fill-opacity="1"/></g><g><ellipse cx="295.72544956207275" cy="334.11216831207275" rx="6.813340187072754" ry="6.813340187072754" fill="#E6E6E6" fill-opacity="1"/></g><g><ellipse cx="330.21373081207275" cy="334.11216831207275" rx="6.813340187072754" ry="6.813340187072754" fill="#E6E6E6" fill-opacity="1"/></g></g><g><path d="M498.0053125,357.43078125C417.23141250000003,357.43478125,346.9526125,297.17878125,336.5703125,214.99368125L338.5546925,214.74268125C348.8086125,295.91378125,418.23141250000003,355.42678125,498.0073125,355.43078125C504.78531250000003,355.43078125,511.5563125,355.00378125,518.2803125,354.15178125C606.2663125,343.03678125,668.8043124999999,262.41258125,657.6893125,174.42678825L659.6743125,174.17578125C670.9273125,263.25538125,607.6113124999999,344.88378124999997,518.5313125,356.13578125000004C511.7053125,356.99878125,504.8503125,357.43078125,498.0053125,357.43078125Z" fill="#3F3D56" fill-opacity="1"/></g><g><path d="M562.4163775,95.638359375C551.4569675,66.666459375,566.0589575,34.295659375,595.0308375,23.336299375C624.0028374999999,12.376909375,656.3734375,26.978909375,667.3324375,55.950859375L665.4614375,56.658859375C654.8934375,28.720309375,623.6773375,14.639039375,595.7388375,25.207409375C567.8002974999999,35.775759375,553.7190575,66.991759375,564.2874775,94.930359375L562.4163775,95.638359375Z" fill="#3F3D56" fill-opacity="1"/></g><g><path d="M724.889265625,193.5303515625L623.223965625,193.5303515625C617.550965625,193.5233515625,612.953674315,188.9263515625,612.947265625,183.2533515625L612.947265625,48.6371515625C612.953613285,42.9640915625,617.550965625,38.3667602525,623.223965625,38.3603515625L724.889265625,38.3603515625C730.562265625,38.3667755125,735.159265625,42.9640915625,735.166265625,48.6371515625L735.166265625,183.2533515625C735.159265625,188.9263515625,730.562265625,193.5233515625,724.889265625,193.5303515625Z" fill="#E6E6E6" fill-opacity="1"/></g><g><path d="M684.49659375,185.46478125L630.37109375,185.46478125C625.05798375,185.45878125,620.7522583,181.15378125,620.74609375,175.84078125L620.74609375,56.05029125C620.7522583,50.73718125,625.05798375,46.43165588,630.37109375,46.42578125L717.74369375,46.42578125C723.05709375,46.43161011,727.36209375,50.73724125,727.36809375,56.05029125L727.36809375,142.59378125C727.34109375,166.25978125,708.16269375,185.43778125,684.49659375,185.46478125Z" fill="#FFFFFF" fill-opacity="1"/></g><g><path d="M709.0261875,106.497556875L639.0856975,106.497556875C637.8259275,106.497556875,636.8046875,105.476316875,636.8046875,104.216556875C636.8046875,102.956786875,637.8259275,101.935546875,639.0856975,101.935546875L709.0261875,101.935546875C710.2859875,101.935546875,711.3071875,102.956786875,711.3071875,104.216556875C711.3071875,105.476316875,710.2859875,106.497556875,709.0261875,106.497556875Z" fill="#E4E4E4" fill-opacity="1"/></g><g><path d="M709.027053125,115.51140875L639.086613125,115.51140875C637.830323125,115.50652875,636.814453125,114.48669875,636.814453125,113.23034875C636.814453125,111.97399875,637.830323125,110.95413208,639.086613125,110.94921875L709.027053125,110.94921875C710.286953125,110.94921875,711.308253125,111.97048875,711.308253125,113.23031875C711.308253125,114.49013875,710.286953125,115.51140875,709.027053125,115.51140875Z" fill="#E4E4E4" fill-opacity="1"/></g><g><path d="M669.4032875,124.525120625L639.0857575,124.525120625C637.8259275,124.525120625,636.8046875,123.503840625,636.8046875,122.244020625C636.8046875,120.984190625,637.8259275,119.962890625,639.0857575,119.962890625L669.4032875,119.962890625C670.6595875,119.967803955,671.6754875,120.987640625,671.6754875,122.243960625C671.6754875,123.500300625,670.6595875,124.520170625,669.4032875,124.525120625Z" fill="#E4E4E4" fill-opacity="1"/></g><g><path d="M709.0261875,69.6899296875L639.0856975,69.6899296875C637.8259275,69.6899296875,636.8046875,68.6686896875,636.8046875,67.4089396875C636.8046875,66.1491696875,637.8259275,65.1279296875,639.0856975,65.1279296875L709.0261875,65.1279296875C710.2859875,65.1279296875,711.3071875,66.1491696875,711.3071875,67.4089396875C711.3071875,68.6686896875,710.2859875,69.6899296875,709.0261875,69.6899296875Z" fill="#E4E4E4" fill-opacity="1"/></g><g><path d="M709.0262875,78.7038315625L639.0857575,78.7038315625C637.8259275,78.7038315625,636.8046875,77.6825515625,636.8046875,76.4227315625C636.8046875,75.1629015625,637.8259875,74.1416168213,639.0857575,74.1416320801L709.0262875,74.1416320801C710.2860875,74.1416168213,711.3073875,75.1629015625,711.3073875,76.4227315625C711.3073875,77.6825515625,710.2860875,78.7038315625,709.0262875,78.7038315625Z" fill="#E4E4E4" fill-opacity="1"/></g><g><path d="M669.404153125,87.716486875L639.086613125,87.716486875C637.830323125,87.711576875,636.814453125,86.691746875,636.814453125,85.435396875C636.814453125,84.179046875,637.830323125,83.159210205,639.086613125,83.154296875L669.404153125,83.154296875C670.660553125,83.159210205,671.676353125,84.179046875,671.676353125,85.435396875C671.676353125,86.691746875,670.660553125,87.711576875,669.404153125,87.716486875Z" fill="#E4E4E4" fill-opacity="1"/></g><g><path d="M709.0261875,144.5942365625L639.0856975,144.5942365625C637.8259275,144.5942065625,636.8046875,143.5729665625,636.8046875,142.3132065625C636.8046875,141.0534365625,637.8259275,140.0321960449,639.0856975,140.0322265625L709.0261875,140.0322265625C710.2859875,140.0321960449,711.3071875,141.0534365625,711.3071875,142.3132065625C711.3071875,143.5729665625,710.2859875,144.5942065625,709.0261875,144.5942365625Z" fill="#2DD4BF" fill-opacity="1"/></g><g><path d="M650.0262875,153.607181875L639.0857575,153.607181875C637.8259275,153.607181875,636.8046875,152.585871875,636.8046875,151.326051875C636.8046875,150.066221875,637.8259275,149.0449523926,639.0857575,149.0449523926L650.0262875,149.0449523926C651.2895875,149.040008545,652.3162875,150.062741875,652.3162875,151.326021875C652.3162875,152.589351875,651.2895875,153.612091875,650.0262875,153.607181875Z" fill="#2DD4BF" fill-opacity="1"/></g><g><path d="M669.404153125,162.62078375L639.086613125,162.62078375C637.830323125,162.61587375,636.814453125,161.59600375,636.814453125,160.33966375C636.814453125,159.08331375,637.830323125,158.06347656,639.086613125,158.05859375L669.404153125,158.05859375C670.660453125,158.06350708,671.676353125,159.08334375,671.676353125,160.33966375C671.676353125,161.59600375,670.660453125,162.61587375,669.404153125,162.62078375Z" fill="#2DD4BF" fill-opacity="1"/></g><g><path d="M338.086055625,189.01740625C319.712115625,140.44410625,344.193215625,86.17300625,392.766015625,67.79899625C441.338515625,49.425006249999996,495.610515625,73.90610625,513.983515625,122.47890625L512.112515625,123.18690624999999C494.129515625,75.64750624999999,441.01351562499997,51.68710625,393.474015625,69.67010625C345.934515625,87.65300625,321.974215625,140.76950625,339.957155625,188.30940625L338.086055625,189.01740625Z" fill="#3F3D56" fill-opacity="1"/></g><g><ellipse cx="512.9073476791382" cy="26.140746116638184" rx="9.546019554138184" ry="9.546019554138184" fill="#E6E6E6" fill-opacity="1"/></g><g><ellipse cx="525.9073476791382" cy="301.1407461166382" rx="9.546019554138184" ry="9.546019554138184" fill="#E6E6E6" fill-opacity="1"/></g><g><ellipse cx="280.9073476791382" cy="74.14074611663818" rx="9.546019554138184" ry="9.546019554138184" fill="#E6E6E6" fill-opacity="1"/></g><g><path d="M412.699171875,466.3877265625L194.166371875,466.3877265625C181.971981875,466.3737265625,172.089965775,456.4917265625,172.076171875,444.2977265625L172.076171875,154.9350265625C172.089904775,142.7406665625,181.971981875,132.8585510625,194.166371875,132.8447265625L412.699171875,132.8447265625C424.894171875,132.8585204625,434.776171875,142.7406265625,434.790171875,154.9350265625L434.790171875,444.2977265625C434.776171875,456.4917265625,424.894171875,466.3747265625,412.699171875,466.3877265625Z" fill="#E6E6E6" fill-opacity="1"/></g><g><path d="M329.2920625,448.476859375L209.5278625,448.476859375C198.4244125,448.463859375,189.4265747,439.465859375,189.4140625,428.362859375L189.4140625,170.869659375C189.4266052,159.766299375,198.4245025,150.768402075,209.5278625,150.755859375L397.3380625,150.755859375C408.4420625,150.768402075,417.4400625,159.766299375,417.4520625,170.869659375L417.4520625,360.31685937500004C417.3970625,408.983859375,377.95906249999996,448.421859375,329.2920625,448.476859375Z" fill="#FFFFFF" fill-opacity="1"/></g><g><path d="M378.604328125,200.1899390625L228.264408125,200.1899390625C225.556518125,200.1899390625,223.361328125,197.9947490625,223.361328125,195.2868690625C223.361328125,192.5789790625,225.556518125,190.3837890625,228.264408125,190.3837890625L378.604328125,190.3837890625C381.312328125,190.3837890625,383.50732812499996,192.5789790625,383.50732812499996,195.2868690625C383.50732812499996,197.9947490625,381.312328125,200.1899390625,378.604328125,200.1899390625Z" fill="#2DD4BF" fill-opacity="1"/></g><g><path d="M378.604328125,219.5644525L228.264648125,219.5644525C225.556608125,219.5644525,223.361328125,217.3691725,223.361328125,214.6611625C223.361328125,211.9531225,225.556608125,209.7578430176,228.264648125,209.7578125L378.604328125,209.7578125C381.312328125,209.7578430176,383.50732812499996,211.9531225,383.50732812499996,214.6611625C383.50732812499996,217.3691725,381.312328125,219.5644525,378.604328125,219.5644525Z" fill="#2DD4BF" fill-opacity="1"/></g><g><path d="M293.433328125,238.9384759375L228.264648125,238.9384759375C225.556608125,238.9384759375,223.361328125,236.7431959375,223.361328125,234.0351559375C223.361328125,231.3271159375,225.556608125,229.1318359375,228.264648125,229.1318359375L293.433328125,229.1318359375C296.141328125,229.1318359375,298.336628125,231.3271159375,298.336628125,234.0351559375C298.336628125,236.7431959375,296.141328125,238.9384759375,293.433328125,238.9384759375Z" fill="#2DD4BF" fill-opacity="1"/></g><g><path d="M378.60365625,279.5161409375L228.26428625,279.5161409375C225.55108625,279.5236209375,223.34765625,277.3262309375,223.34765625,274.6130409375C223.34765625,271.8998409375,225.55111625,269.7024841275,228.26428625,269.7099914551L378.60365625,269.7099914551C381.31765625,269.7024841275,383.52065625,271.8998709375,383.52065625,274.6130409375C383.52065625,277.3262309375,381.31765625,279.5236209375,378.60365625,279.5161409375Z" fill="#E4E4E4" fill-opacity="1"/></g><g><path d="M378.604328125,298.890624375L228.264648125,298.890624375C225.556608125,298.890624375,223.361328125,296.695344375,223.361328125,293.987334375C223.361328125,291.279294375,225.556608125,289.0840148926,228.264648125,289.083984375L378.604328125,289.083984375C381.312328125,289.0840148926,383.50732812499996,291.279294375,383.50732812499996,293.987334375C383.50732812499996,296.695344375,381.312328125,298.890624375,378.604328125,298.890624375Z" fill="#E4E4E4" fill-opacity="1"/></g><g><path d="M293.433328125,318.265624375L228.264648125,318.265624375C225.556608125,318.265624375,223.361328125,316.070344375,223.361328125,313.362304375C223.361328125,310.654264375,225.556608125,308.458984375,228.264648125,308.458984375L293.433328125,308.458984375C296.141328125,308.458984375,298.336628125,310.654264375,298.336628125,313.362304375C298.336628125,316.070344375,296.141328125,318.265624375,293.433328125,318.265624375Z" fill="#E4E4E4" fill-opacity="1"/></g><g><path d="M378.60365625,358.843259375L228.26428625,358.843259375C225.55108625,358.850769375,223.34765625,356.653379375,223.34765625,353.940189375C223.34765625,351.226989375,225.55111625,349.029602055,228.26428625,349.037109375L378.60365625,349.037109375C381.31765625,349.029602055,383.52065625,351.226989375,383.52065625,353.940189375C383.52065625,356.653379375,381.31765625,358.850769375,378.60365625,358.843259375Z" fill="#E4E4E4" fill-opacity="1"/></g><g><path d="M378.604328125,378.21679625L228.264648125,378.21679625C225.556608125,378.21679625,223.361328125,376.02148625,223.361328125,373.31347625C223.361328125,370.60546625,225.556608125,368.41015625,228.264648125,368.41015625L378.604328125,368.41015625C381.312328125,368.41015625,383.50732812499996,370.60546625,383.50732812499996,373.31347625C383.50732812499996,376.02148625,381.312328125,378.21679625,378.604328125,378.21679625Z" fill="#E4E4E4" fill-opacity="1"/></g><g><path d="M293.431546875,397.59179625L228.262816875,397.59179625C225.560086875,397.58434625,223.373046875,395.39123625,223.373046875,392.68847625C223.373046875,389.98571625,225.560086875,387.79260254,228.262816875,387.78515625L293.431546875,387.78515625C296.13424687500003,387.79266357,298.321346875,389.98571625,298.321346875,392.68847625C298.321346875,395.39123625,296.13424687500003,397.58434625,293.431546875,397.59179625Z" fill="#E4E4E4" fill-opacity="1"/></g><g><path d="M581.07575,251.5292109375L470.40575,251.5292109375C464.23022,251.5222109375,459.22570801,246.5182109375,459.21875,240.3422109375L459.21875,93.8032109375C459.22570801,87.6277209375,464.23022,82.6231994675,470.40575,82.6162109375L581.07575,82.6162109375C587.25075,82.6231689475,592.25575,87.6276809375,592.26275,93.8032109375L592.26275,240.3422109375C592.25575,246.5182109375,587.25075,251.5222109375,581.07575,251.5292109375Z" fill="#E6E6E6" fill-opacity="1"/></g><g><path d="M540.049353125,242.7064296875L478.184553125,242.7064296875C472.425533125,242.6994296875,467.758544925,238.0324296875,467.751953125,232.2734296875L467.751953125,101.8735296875C467.758300785,96.1142896875,472.425353125,91.4470214875,478.184553125,91.4404296875L573.295953125,91.4404296875C579.054953125,91.4468383775,583.722953125,96.1141396875,583.728953125,101.8735296875L583.728953125,199.0264296875C583.701953125,223.1394296875,564.161453125,242.6784296875,540.049353125,242.7064296875Z" fill="#FFFFFF" fill-opacity="1"/></g><g><path d="M563.807753125,116.721859375L487.672423125,116.721859375C486.301143125,116.721859375,485.189453125,115.610199375,485.189453125,114.238859375C485.189453125,112.867519375,486.301143125,111.755859375,487.672423125,111.755859375L563.807753125,111.755859375C565.179053125,111.755859375,566.290753125,112.867519375,566.290753125,114.238859375C566.290753125,115.610199375,565.179053125,116.721859375,563.807753125,116.721859375Z" fill="#E4E4E4" fill-opacity="1"/></g><g><path d="M563.808865625,126.53268625L487.673525625,126.53268625C486.304805625,126.52889625,485.197265625,125.41827625,485.197265625,124.04955625C485.197265625,122.68084625,486.304805625,121.57022095,487.673525625,121.56640625L563.808865625,121.56640625C565.1775656249999,121.57019043,566.285065625,122.68084625,566.285065625,124.04955625C566.285065625,125.41824625,565.1775656249999,126.52886625,563.808865625,126.53268625Z" fill="#E4E4E4" fill-opacity="1"/></g><g><path d="M520.676365625,136.34518625L487.673525625,136.34518625C486.304805625,136.34136625,485.197265625,135.23074625,485.197265625,133.86202625C485.197265625,132.49331625,486.304805625,131.38269043,487.673525625,131.37890625L520.676365625,131.37890625C522.045065625,131.38269043,523.152665625,132.49331625,523.152665625,133.86202625C523.152665625,135.23074625,522.045065625,136.34136625,520.676365625,136.34518625Z" fill="#E4E4E4" fill-opacity="1"/></g><g><path d="M563.6183,198.966L487.48297,198.966C486.11169,198.966,485,197.85434,485,196.483C485,195.11166,486.11169,194,487.48297,194L563.6183,194C564.9896,194,566.1013,195.11166,566.1013,196.483C566.1013,197.85434,564.9896,198.966,563.6183,198.966Z" fill="#E4E4E4" fill-opacity="1"/></g><g><path d="M563.6116,208.96628L487.47626,208.96628C486.10754,208.96249,485,207.85187,485,206.48315C485,205.11444,486.10754,204.0038147,487.47626,204L563.6116,204C564.9802999999999,204.00378418,566.0878,205.11444,566.0878,206.48315C566.0878,207.85184,564.9802999999999,208.96246,563.6116,208.96628Z" fill="#E4E4E4" fill-opacity="1"/></g><g><path d="M520.4791,217.96628L487.47626,217.96628C486.10754,217.96246,485,216.85184,485,215.48312C485,214.11441,486.10754,213.00378418,487.47626,213L520.4791,213C521.8478,213.00378418,522.9554,214.11441,522.9554,215.48312C522.9554,216.85184,521.8478,217.96246,520.4791,217.96628Z" fill="#E4E4E4" fill-opacity="1"/></g><g><path d="M563.807753125,156.893734375L487.672423125,156.893734375C486.301143125,156.893734375,485.189453125,155.782074375,485.189453125,154.410734375C485.189453125,153.039394375,486.301143125,151.927734375,487.672423125,151.927734375L563.807753125,151.927734375C565.179053125,151.927734375,566.290753125,153.039394375,566.290753125,154.410734375C566.290753125,155.782074375,565.179053125,156.893734375,563.807753125,156.893734375Z" fill="#2DD4BF" fill-opacity="1"/></g><g><path d="M543.807953125,166.7055378125L487.672603125,166.7055378125C486.301213125,166.7055378125,485.189453125,165.5938078125,485.189453125,164.2224078125C485.189453125,162.8510178125,486.301213125,161.7392578125,487.672603125,161.7392578125L543.807953125,161.7392578125C545.179353125,161.7392578125,546.291053125,162.8510178125,546.291053125,164.2224078125C546.291053125,165.5938078125,545.179353125,166.7055378125,543.807953125,166.7055378125Z" fill="#2DD4BF" fill-opacity="1"/></g><g><path d="M520.67551875,176.51706125L487.67266875,176.51706125C486.30504875,176.51172125,485.19921875,175.40152125,485.19921875,174.03390125C485.19921875,172.66626125,486.30504875,171.55609131,487.67266875,171.55078125L520.67551875,171.55078125C522.04311875,171.55612183,523.14901875,172.66629125,523.14901875,174.03390125C523.14901875,175.40152125,522.04311875,176.51172125,520.67551875,176.51706125Z" fill="#2DD4BF" fill-opacity="1"/></g><g><path d="M74.8637395,281.69697187500003C85.2143375,273.555871875,92.11613750000001,261.812571875,94.1930375,248.808745875C94.3977375,247.520202875,96.3867375,247.905730875,96.1822375,249.192751875C93.9957375,262.720871875,86.7884375,274.926971875,75.9987175,283.375171875C74.9697265,284.179671875,73.8403325,282.497171875,74.8637395,281.69697187500003Z" fill="#FFFFFF" fill-opacity="1"/></g><g><path d="M71.889343125,170.6344625C76.806123125,172.2388325,82.200153125,171.2633225,86.243553125,168.0384675C87.261853125,167.2212985,88.390253125,168.9047125,87.378553125,169.7165525C82.896653125,173.2571525,76.951143125,174.3460425,71.505310125,172.6236225C70.966736125,172.5016325,70.615478525,171.9823325,70.702728225,171.4370425C70.811310125,170.8894225,71.340668125,170.5314025,71.889343125,170.6344625Z" fill="#FFFFFF" fill-opacity="1"/></g><g><ellipse cx="105.73447227478027" cy="212.63290977478027" rx="22.445409774780273" ry="22.445409774780273" fill="#2F2E41" fill-opacity="1"/></g><g><path d="M175.296,428.47950000000003L17.15662,428.47950000000003C14.86209,428.4768,13.00265503,426.6174,13,424.3229L13,360.15662C13.00265503,357.86209,14.86209,356.00265503,17.15662,356L175.296,356C177.591,356.00262451,179.45,357.86206,179.453,360.15662L179.453,424.32280000000003C179.45,426.6174,177.591,428.4769,175.296,428.47950000000003Z" fill="#D1D3D4" fill-opacity="1"/></g><g><path d="M160.988,458.97647L32.96414,458.97647C30.21869,458.96335,28,456.73401,28,453.98853C28,451.24304,30.21869,449.0137329,32.96414,449.000579834L160.988,449.000579834C167.421,448.9107971,167.485,459.067,160.988,458.97647Z" fill="#E4E4E4" fill-opacity="1"/></g><g><path d="M160.012,481.9765L31.98792,481.9765C29.233150000000002,481.9765,27,479.74335,27,476.98859C27,474.23383,29.233150000000002,472.000610352,31.98792,472.000610352L160.012,472.000610352C166.444,471.9108276,166.509,482.0671,160.012,481.9765Z" fill="#E4E4E4" fill-opacity="1"/></g><g><path d="M160.012,504.9765L31.98792,504.9765C29.233150000000002,504.9765,27,502.74335,27,499.98859C27,497.23383,29.233150000000002,495.000610352,31.98792,495.000610352L160.012,495.000610352C166.444,494.9107666,166.509,505.0671,160.012,504.9765Z" fill="#E4E4E4" fill-opacity="1"/></g><g><path d="M224.00439062499998,256.958778125C221.415090625,260.883578125,215.907490625,261.513978125,212.498390625,258.275678125L156.462890625,282.195378125L157.937100625,268.326278125L212.545290625,247.153748125C215.373890625,244.545380125,219.70649062500001,244.464905125,222.629990625,246.966428125C225.553490625,249.467958125,226.14399062500001,253.760808125,224.00439062499998,256.958778125Z" fill="#FFB6B6" fill-opacity="1"/></g><g><path d="M109.947963125,255.67046875Q103.019863125,262.39946875,109.895323125,271.05876875C116.770803125,279.71806875,150.76560312499998,285.34866875,156.217703125,286.42026875Q161.669903125,287.49176875,191.99690312500002,266.86306875L194.93410312499998,251.91796875L161.08250312500002,263.53196875L109.947963125,255.67046875Z" fill="#2DD4BF" fill-opacity="1"/></g><g><path d="M91.34191925,306.7259216875L91.88745125,317.0911546875Q90.27725225,326.2728546875,91.60153225,328.2542546875Q92.91583625,330.2257546875,128.78040625,330.4746546875Q131.15010625,317.7000546875,133.19120625,306.5185546875L91.34191925,306.7259216875Z" fill="#FFB6B6" fill-opacity="1"/></g><g><path d="M194.4561775,443.7775390625L201.9541875,442.2635390625L199.8081875,411.9775390625L188.7421875,414.2135290625L194.4561775,443.7775390625Z" fill="#FFB6B6" fill-opacity="1"/></g><g><path d="M205.197890625,404.36490625L212.16789062499998,401.23090625L203.125890625,372.25390625L192.837890625,376.88088625L205.197890625,404.36490625Z" fill="#FFB6B6" fill-opacity="1"/></g><g><path d="M211.26875,388.038265625L198.14375,395.469765625L165.77564999999998,343.456865625C143.05315000000002,358.765265625,120.83335,366.096365625,98.43385,370.008365625C90.86063,371.356865625,83.13931,370.673465625,81.685394,362.965465625Q81.583405,362.424965625,81.5228271,361.878465625C80.62851,353.458965625,91.10159,342.667165625,92.43285,332.366165625L121.09585,330.645465625L124.63034999999999,335.177365625L157.77814999999998,314.797945625C164.54845,310.725525625,173.34005000000002,312.948333625,177.36124999999998,319.749115625Q177.68985,320.290285625,177.97135,320.858275625L211.26875,388.038265625Z" fill="#2F2E41" fill-opacity="1"/></g><g><path d="M203.23514062499999,423.0289375L188.217140625,424.4246375L160.987340625,368.7353375C133.985540625,373.3791375,108.511740625,374.8668375,86.478040625,369.2491375C78.951450625,367.26153750000003,74.415250625,359.5988375,76.292785625,352.0440375Q76.421417625,351.5093375,76.590301625,350.9859375C79.227290625,342.9402375,86.13004062499999,337.24755749999997,91.568540625,328.3984375L131.293040625,329.0018615L126.85604062499999,344.3109375L165.445640625,339.3173375C173.290540625,338.3795175,180.39714062500002,344.0121375,181.27614062499998,351.8637375Q181.354140625,352.4921375,181.37714062499998,353.1256375L203.23514062499999,423.0289375Z" fill="#2F2E41" fill-opacity="1"/></g><g><ellipse cx="106.85307693481445" cy="220.84135818481445" rx="16.130420684814453" ry="16.130420684814453" fill="#FFB6B6" fill-opacity="1"/></g><g><path d="M97.39704375,242.794921875L112.18714375,244.534911875C113.46574375,244.685361875,114.50804375,245.630221875,114.78294375,246.887911875L117.13504375,257.650921875L131.79734375,274.917621875Q137.06244375,284.789621875,135.08804375,295.977921875Q133.11364375,307.166321875,132.24594375,315.47982187499997Q92.91464375,330.226821875,91.59838375,328.252321875Q90.28213375,326.277921875,89.85495374999999,317.309721875L84.58984375,258.735521875Q90.51306375,248.863461875,93.80377375,248.863461875C95.92754375,248.791811875,95.65504375,244.011931875,97.39704375,242.794921875Z" fill="#2DD4BF" fill-opacity="1"/></g><g><ellipse cx="132.64601492881775" cy="314.57482957839966" rx="3.755389928817749" ry="4.506470203399658" fill="#2DD4BF" fill-opacity="1"/></g><g><path d="M190.736328125,435.9797065625L202.167328125,430.2509765625L204.321728125,435.2770965625L218.776628125,438.1990965625C220.242028125,438.4951165625,221.344728125,439.7096865625,221.498128125,441.1968765625C221.651528125,442.6839765625,220.820028125,444.0979765625,219.445828125,444.6868765625L205.479528125,450.6734765625L200.941128125,446.7337765625L202.132228125,452.1082765625L196.866368125,454.3655765625L190.736328125,435.9797065625Z" fill="#2F2E41" fill-opacity="1"/></g><g><path d="M201.92578125,401.954280625L213.25428125,396.025390625L215.49678125,401.012850625L230.00088125,403.680140625C231.47118125,403.950260625,232.59508125,405.145200625,232.77458125,406.629390625C232.95408125,408.11359062500003,232.14768125,409.542090625,230.78408124999999,410.155190625L216.92518125,416.386490625L212.31818125,412.527190625L213.60368125,417.879990625L208.37826125,420.229490625L201.92578125,401.954280625Z" fill="#2F2E41" fill-opacity="1"/></g><g><path d="M97.63648125,215.78180625C93.37497125,215.78870625,89.21573125,214.47650625,85.72970625,212.02530625L85.61328125,211.94380625L85.61328125,211.80180625C85.62301636,203.21897625,92.57837125,196.2636261,101.16118125,196.25390625L107.70768125000001,196.25390625C116.29048125,196.26365662,123.24578125,203.21897625,123.25558125,211.80180625C123.24648125,213.76370624999998,121.67628125,215.36130624999998,119.71488124999999,215.40430625L98.00438125,215.77850625C97.88188124999999,215.78070625,97.75878125,215.78180625,97.63648125,215.78180625Z" fill="#2F2E41" fill-opacity="1"/></g><g><path d="M379.98,253L227.02045,253C224.80106,252.9974,223.00256805,251.15019999999998,223,248.8709L223,185.12912C223.00256805,182.84976,224.80106,181.00263747,227.02045,181L379.98,181C382.199,181.00259199,383.997,182.84974,384,185.12912L384,248.8709C383.997,251.15030000000002,382.199,252.9974,379.98,253Z" fill="#2DD4BF" fill-opacity="1"/></g><g><path d="M162.564425,341.254228125C157.882425,341.687328125,153.947025,337.783028125,154.342925,333.097728125L100.640625,304.319458125L112.386525,296.798828125L163.052425,326.180728125C166.856625,326.757528125,169.628225,330.088628125,169.503625,333.934228125C169.379125,337.77992812499997,166.39802500000002,340.924728125,162.564425,341.254228125Z" fill="#FFB6B6" fill-opacity="1"/></g><g><path d="M92.25975625,251.4336855625Q82.67654625,250.2336765625,80.21698025,261.0135465625C77.75741625,271.7933765625,94.61695625,301.8451765625,97.18935625,306.7702765625Q99.76185625,311.6953765625,134.82235624999998,322.46687656250003L148.32275625,315.4153765625L118.09415625,296.2569765625L92.25975625,251.4336855625Z" fill="#2DD4BF" fill-opacity="1"/></g><g><path d="M109.35048125,198.6578578125C110.85968125,196.8071578125,109.67988125,194.0661578125,108.44218125,192.0239578125Q104.18848125,185.0048578125,99.51238125,178.2536578125C95.61688125,172.6297778125,90.89668125,166.7501978125,84.18958125,165.4019168125C78.07268125,164.1723018125,71.91048125,167.0790678125,66.64818125,170.4310278125C61.474281250000004,173.7265978125,56.37848125,177.8778578125,54.40928125,183.68745781249999C52.524781250000004,189.2471578125,53.84828125,195.4212578125,56.193181249999995,200.8031578125C58.20138125,205.4124578125,60.90318125,210.9242578125,58.039081249999995,215.0565578125C56.66798125,216.7545578125,54.82518125,218.0087578125,52.74258125,218.6612578125C47.45358125,220.7158578125,41.77023125,221.5544578125,36.11328125,221.1149578125C43.880371249999996,221.0314578125,50.679081249999996,229.00675781249998,58.20868125,227.0988578125C62.47848125,226.0169578125,65.32228125,222.0361578125,67.36858125,218.1356578125C68.86558124999999,215.5161578125,69.87818125,212.6482578125,70.35798125,209.6696578125C70.85548125,205.6292578125,69.77938125,201.3776578125,71.13788124999999,197.5401578125C72.55158125,193.5462578125,76.30998124999999,190.87405781249998,80.10358124999999,188.9875578125C82.62228125,187.7350578125,85.36818124999999,186.6890578125,88.17318125,186.9013578125C96.12438125,187.5032578125,100.24248125,197.2898578125,107.78728125,199.8703578125" fill="#2F2E41" fill-opacity="1"/></g><g><ellipse cx="578.5" cy="233" rx="20.5" ry="20" fill="#2DD4BF" fill-opacity="1"/></g><g><path d="M575.74652,244C575.04027,244,574.37529,243.6516,573.95173,243.0597L568.448839,235.3736C567.705376,234.3351,567.9063008,232.8619,568.897631,232.0831C569.88896,231.30435,571.29534,231.51485,572.0388,232.5533L575.63901,237.5813L584.8856,223.05235C585.5715,221.9681321,586.9675,221.673526,588.0006,222.395015C589.0337,223.11648,589.3111,224.57971,588.6194,225.6599L577.61367,242.9533C577.20967,243.5879,576.53688,243.9778,575.809,243.9992C575.78813,243.9996,575.7673,244,575.74652,244Z" fill="#FFFFFF" fill-opacity="1"/></g><g><path d="M673.9976,485L663.83509,484.9992L659,448L674,448.000734347L673.9976,485Z" fill="#FFB6B6" fill-opacity="1"/></g><g><path d="M673.2069,482.35893L662.6103,478.122336L662.3069,478L656.4561,482.35898C649.57612,482.36126,644,487.84213,644,494.6023L644,495L676,495L676,482.35898L673.2069,482.35893Z" fill="#2F2E41" fill-opacity="1"/></g><g><path d="M756,477.0926L746.6523,480L731,445.29083L744.7968,441L756,477.0926Z" fill="#FFB6B6" fill-opacity="1"/></g><g><path d="M754.7739,474.00243L743.8287,473.0289387L743.515,473L739.41386,478.98508C733.10646,481.03235,729.5823,488.0283,731.541526,494.6128L731.656799,495L761,485.4813L757.3351,473.171586L754.7739,474.00243Z" fill="#2F2E41" fill-opacity="1"/></g><g><path d="M716.4586,294L720.4185,305.185L720.4185,311.2311L719.8666000000001,317.8799L725.9958,340.0546L730.8037,388.9532L755,461.337L736.4472,466.644L689.0788,348.3748L674.1175,468L657.15105,467.55Q654.248445,460.579,655.01171,456.789C655.77498,452.999,655.77498,457.547,655.77498,452.999C655.77498,448.451,652.46615,450.427,654.883835,446.786C657.30152,443.145,657.00058,439.95799999999997,657.15105,437.76099999999997C657.30152,435.565,655.77498,346.8767,655.77498,343.8447C655.77498,340.8126,655.24609,341.4767,655.51056,338.4915C655.77503,335.5064,659.12952,336.7336,658.21555,331.5719C657.30157,326.41020000000003,657.00058,327.3125,657.15105,323.45029999999997Q657.30152,319.5881,659.40504,296.94236L716.4586,294Z" fill="#2F2E41" fill-opacity="1"/></g><g><path d="M680,233.5979L697.1393,239L697.2039,238.98930000000001C703.5831000000001,237.9284,708.8765,227.58429999999998,712.1935,219.0935C714.4582,213.2822,711.8025,206.72245,706.117,204.0838C701.9807,202.197775,697.1247,202.806067,693.5898,205.65299L684.78869,212.79295L680,233.5979Z" fill="#2DD4BF" fill-opacity="1"/></g><g><path d="M719.9328,308L720.0357,307.861C725.5334,300.45799999999997,718.0142,282.124,716.8774,279.46500000000003L721.9892,277.927L721.0982,268.04449999999997L720.6691,263.63779999999997L724.6436,259.8053L724.657,259.7075L727.3904,239.95600000000002L730.9669,226.8834C733.7115,216.8211,730.8966,206.038,723.6039,198.6771L716.2926,191.3064L707.5333,177.384992L692.847,177L687.5658,186.52591C677.4309,188.6261,670.2235000000001,197.7823,670.4394,208.2829L670.9366,233.6427L665.6669,265.0635L665.5191,270.771L660.3468,276.313L661.3031,281.916L657.43415,283.481L655.54092,291.442C654.81788,292.361,650.0436077,298.488,650.000186159,300.197C649.99367061,300.453,650.173779,300.706,650.5669,300.991C653.65723,303.236,670.9298,308.101,678.7036,305.176C686.984,302.06399999999996,719.4371,307.90999999999997,719.764,307.969L719.9328,308Z" fill="#2DD4BF" fill-opacity="1"/></g><g><path d="M684,228.4263L676.4924,214Q665.5951,214.717447,643.967,226.8614L603.0458,235.2236C599.69418,233.9819,595.90146,235.2409,594.05399,238.2084C592.206507,241.176,592.838479,244.9939,595.55234,247.26C598.2662,249.52609999999999,602.27703,249.5851,605.0614,247.3998L657.1156,243.8036L684,228.4263Z" fill="#FFB8B8" fill-opacity="1"/></g><g><path d="M681.2853,231L700.2025,216.1419L703.5347,203.4505C704.8516,198.3627,703.3225,192.92597,699.5898,189.42468C694.4122,184.63354,686.6081,184.89966,681.7336,190.03358C674.61475,197.5434,666.49529,208.0204,668.239416,215.2854L668.257075,215.359L681.2853,231Z" fill="#2DD4BF" fill-opacity="1"/></g><g><ellipse cx="700.5" cy="158" rx="17.5" ry="17" fill="#FFB8B8" fill-opacity="1"/></g><g><path d="M711.9433,176C709.0122,174.618,705.5887,175.4578,702.3528,175.5857C699.1169,175.7135,695.1962,174.489,694.5096,171.3123C694.0019,168.9634,695.5278,166.3889,694.5663,164.1877C693.5178,161.78719999999998,690.3705,161.4456,687.8466,160.7735C681.35419,158.8904,676.827257,152.9998,676.660935,146.2183C676.485578,147.5299,678.72135,147.9607,679.45574,146.8617C680.19012,145.7627,679.68427,144.2415,678.87457,143.1972C678.06487,142.1529,676.971905,141.31893,676.361293,140.14612C675.750681,138.97331,675.869395,137.23153,677.06183,136.66713C678.29775,139.1717,680.5427099999999,141.02537,683.22937,141.75966C682.68697,140.10585,683.45388,138.24654,684.68826,137.0233C685.9996,135.87721,687.5105,134.98408,689.145,134.38884C693.1845,132.63115,697.9012,130.88206,701.813,132.910027C703.8588,133.99088,705.3009,135.95032,705.729,138.23082C712.9651,138.845,720.3955,146.7131,719.9836,153.9907C719.5402,161.8253,719.2167,162.4592,712.7192,175.6431" fill="#2F2E41" fill-opacity="1"/></g><g><path d="M799.4436,495L775.21203,495L775.10793,494.8023C774.79811,494.2144,774.49898,493.5914,774.21947,492.9513C771.72344,487.3604,770.66849,480.966,769.737604,475.32437L769.0366329,471.07187C768.862961,470.01835,769.317173,468.959889,770.185,468.395594C771.05282,467.831252,772.16099,467.873824,772.98692,468.503212Q778.51073,472.70871,784.0388,476.906C785.4342,477.96838,787.0279,479.1979,788.5542,480.5266C788.7014,479.7783,788.8555,479.0278,789.0095,478.2877C789.2267,477.24237,790.028,476.4393,791.0354,476.25702C792.0427999999999,476.07475,793.0553,476.54976,793.5954,477.45808L796.4305,482.2239C798.4983,485.7042,800.3234,489.1338,799.9516,492.8327C799.9534,492.8777,799.9502,492.9228,799.9419,492.967C799.8675,493.5746,799.7295,494.1717,799.5305,494.7478L799.4436,495Z" fill="#F0F0F0" fill-opacity="1"/></g><g><path d="M254.9629,222.99020000000002Q253.6055,225.9004,251.1934,227.4629Q248.7812,229.0156,245.5977,229.0156Q242.32617,229.0156,239.74805,227.4043Q237.16992,225.7832,235.71484,222.89260000000002Q234.25977,219.9922,234.25977,216.33010000000002Q234.25977,212.7266,235.72461,209.8945Q237.19922,207.0625,239.83594,205.4707Q242.48242,203.87891,245.9004,203.87891Q252.05270000000002,203.87891,254.9043,209.9141L249.9531,212.0723Q249.3477,210.5977,248.2246,209.8555Q247.1016,209.1035,245.5684,209.1035Q243.9473,209.1035,242.66797,210.0312Q241.39844,210.959,240.69531,212.5996Q239.99219,214.2305,239.99219,216.33010000000002Q239.99219,218.4883,240.69531,220.1875Q241.39844,221.877,242.66797,222.8438Q243.9473,223.8008,245.5684,223.8008Q248.4199,223.8008,250.0117,220.832L254.9629,222.99020000000002ZM257.8047,228.5957L257.8047,204.29883L263.2051,204.29883L263.2051,212.7852L263.3516,212.7852Q264.1328,211.4668,265.3926,210.7539Q266.65229999999997,210.0312,268.332,210.0312Q271.0371,210.0312,272.502,211.7695Q273.9766,213.5078,273.9766,216.7207L273.9766,228.5957L268.5762,228.5957L268.5762,217.9805Q268.5762,216.6621,267.9316,215.9102Q267.2871,215.1582,266.1445,215.1582Q264.7969,215.1582,263.9961,215.998Q263.2051,216.8379,263.2051,218.3125L263.2051,228.5957L257.8047,228.5957ZM281.9844,229.0156Q279.6113,229.0156,278.0293,227.6387Q276.457,226.2617,276.457,223.8008Q276.457,221.9355,277.5215,220.5Q278.5859,219.0645,280.5488,218.2734Q282.5215,217.4727,285.0996,217.4727L286.6621,217.4727L286.6621,217.1406Q286.6621,215.8516,285.9492,215.17770000000002Q285.2461,214.5039,283.957,214.5039Q282.1016,214.5039,280.59770000000003,216.3594L277.0918,213.752Q280.08979999999997,210.0312,284.6797,210.0312Q286.8672,210.0312,288.52729999999997,210.9004Q290.1973,211.7695,291.125,213.3516Q292.0625,214.9238,292.0625,216.9648L292.0625,228.5957L286.6621,228.5957L286.6621,226.5938L286.4766,226.5938Q285.9395,227.7852,284.7676,228.4004Q283.5957,229.0156,281.9844,229.0156ZM283.72270000000003,224.6406Q285.041,224.6406,285.8516,224.0742Q286.6621,223.498,286.6621,222.541L286.6621,221.8477L285.6367,221.8477Q283.8105,221.8477,282.8926,222.209Q281.9844,222.5703,281.9844,223.4395Q281.9844,223.94729999999998,282.4434,224.2988Q282.9121,224.6406,283.72270000000003,224.6406ZM306.916,215.5488L302.2969,215.5488L302.2969,221.8477Q302.2969,222.7461,302.834,223.2441Q303.3711,223.7422,304.3672,223.7422Q305.4414,223.7422,306.5547,223.4102L306.5547,228.5078Q304.8164,229.0156,303.0488,229.0156Q300.0703,229.0156,298.4785,227.38479999999998Q296.8965,225.7539,296.8965,222.6875L296.8965,215.5488L294.1035,215.5488L294.1035,210.4512L296.8965,210.4512L296.8965,205.44141L302.2969,205.44141L302.2969,210.4512L306.916,210.4512L306.916,215.5488ZM319.97270000000003,209.1035Q317.3066,209.1035,315.8223,211.0371Q314.3379,212.9707,314.3379,216.44729999999998Q314.3379,219.9922,315.7637,221.8965Q317.1895,223.8008,319.7969,223.8008Q321.02729999999997,223.8008,321.9551,223.4297Q322.8828,223.0488,323.752,222.1504L323.752,219.5137L318.6836,219.5137L318.6836,214.4355L329.0059,214.4355L329.0059,224.25Q327.209,226.6816,324.8652,227.8535Q322.5215,229.0156,319.7969,229.0156Q316.46680000000003,229.0156,313.9277,227.4727Q311.3984,225.9297,310.0117,223.0781Q308.6348,220.2266,308.6348,216.44729999999998Q308.6348,212.668,310.041,209.8262Q311.457,206.97461,314.0156,205.43164Q316.584,203.87891,319.97270000000003,203.87891Q323.09770000000003,203.87891,325.4316,205.32422Q327.7754,206.75977,329.123,209.3379L324.8066,212.4336Q324.0547,210.9004,322.71680000000003,210.002Q321.3887,209.1035,319.97270000000003,209.1035ZM341.389,204.29883Q344.299,204.29883,346.438,205.32422Q348.586,206.33984,349.758,208.2441Q350.93,210.1484,350.93,212.7266Q350.93,215.2754,349.807,217.1895Q348.68399999999997,219.0938,346.594,220.1191Q344.514,221.13479999999998,341.69100000000003,221.13479999999998L338,221.13479999999998L338,228.5957L332.4238,228.5957L332.4238,204.29883L341.389,204.29883ZM340.549,216.0859Q342.707,216.0859,343.967,215.1875Q345.227,214.2891,345.227,212.7266Q345.227,211.1738,343.967,210.2559Q342.707,209.3379,340.549,209.3379L338,209.3379L338,216.0859L340.549,216.0859ZM365.305,228.5957L359.729,228.5957L359.729,209.5234L353.21500000000003,209.5234L353.21500000000003,204.29883L371.818,204.29883L371.818,209.5234L365.305,209.5234L365.305,228.5957Z" fill="#FFFFFF" fill-opacity="1"/></g></g></svg>