<svg id="svg8" xmlns="http://www.w3.org/2000/svg" viewBox="0 0 29.36 29.12"><defs><style>.cls-1{fill:#14b8a6;}.cls-2{fill:#fff;}</style></defs><path id="path4" class="cls-1" d="M16,.79v0a.06.06,0,0,0,0,.06c.06,0,.18.06.21,0a.09.09,0,0,0-.06-.06A.4.4,0,0,1,16,.79Zm-1,.27h-.15a0,0,0,0,0,0,0s.15,0,.21,0S15,1.06,15,1.06ZM10.41.74c.09,0,.18.08.3.08s.5,0,.76,0a3.12,3.12,0,0,0-.18.42c-.08,0-.17-.06-.26-.06s-.35.08-.59.08-.32,0-.5,0-.35-.08-.53-.08-.5.11-.73.11a2.19,2.19,0,0,1-.36,0c-.14,0-.41-.05-.38-.26S8.12,1,8.21,1s.14-.12.26-.12.15.06.24.06.11,0,.17,0a1.84,1.84,0,0,0,.33,0c.08,0,.17-.09.26-.09a2.64,2.64,0,0,1,.47,0A2.89,2.89,0,0,1,10.41.74Zm-3.06.5A.41.41,0,0,1,7,1.56a7.48,7.48,0,0,1-.82,0c-.09,0-.21.06-.27.06s-.41-.24-.68-.27c-.08,0-.17.06-.26,0-.06-.32.44-.17.62-.14s.32-.09.5-.09.29.12.44.12.15-.09.32-.12A1.59,1.59,0,0,0,7.18,1C7.29,1,7.35,1.18,7.35,1.24Zm-3.82.17c0,.18-.21.15-.35.18A1.1,1.1,0,0,0,2.44,2c-.12.12-.15.26-.26.35s-.36.15-.44.3,0,.41-.24.41a1.06,1.06,0,0,1,0-.35c0-.15.24-.3.29-.45S1.91,2,2,1.79a5.44,5.44,0,0,1,.68-.23c.23-.12.26-.24.58-.24C3.41,1.32,3.53,1.29,3.53,1.41Zm-2.15,2c.09.15-.09.24-.09.36s.27.32.15.52A.68.68,0,0,1,.88,4C1,3.76,1.06,3.38,1.38,3.38Zm-.2,1a.25.25,0,0,1-.24.21,0,0,0,0,0,0,0A.19.19,0,0,1,1,4.29a.15.15,0,0,1,.2.06Zm15-3.82c.23,0,.44-.12.67,0s.41.35.62.35.24-.17.44-.2a1.08,1.08,0,0,1,.5.09c.21.08.32.41.59.35s.12-.24.18-.35.38,0,.58,0,.24-.05.36-.05a1,1,0,0,1,.23.05l.38,0c.3,0,.53.26.77.26a1.5,1.5,0,0,0,.35-.09c.15,0,.36.09.53.09s.18-.06.27-.06a5,5,0,0,1,.56-.06c.08,0,.14.06.23.06s.35-.06.53-.06.18.06.26.06a1.24,1.24,0,0,0,.27,0l.29,0c.3,0,.59-.23.83-.18s.11.09.2.09.18,0,.3,0a.85.85,0,0,0,.5.06c.11.27.29.24.64.32.18,0,.39.12.53.15.36,0,.86,0,.86.35,0,.15-.15.24-.15.42s.44.35.53.64,0,.44.06.68c0,.09.09.18.12.24s0,.29.05.44.15.29.15.38,0,.53-.18.53-.17-.24-.2-.44a2,2,0,0,0-.12-.33c0-.08,0-.26,0-.38s-.12-.2-.15-.29V3.44a.81.81,0,0,0-.5-.85c.09-.33-.17-.41-.35-.59s-.29-.41-.5-.47-.23,0-.35-.06-.27-.12-.35-.12a4.07,4.07,0,0,0-.5,0c-.15,0-.3,0-.48,0h-.58a1.23,1.23,0,0,0-.24-.09.47.47,0,0,0-.2.06c-.06,0-.24,0-.33,0s-.23.15-.38.12-.21-.12-.35-.15a5.55,5.55,0,0,0-1,0A4.17,4.17,0,0,1,22,1.29a4.9,4.9,0,0,1-.59.06c-.14,0-.14-.17-.26-.26s-.3.09-.36.2a4.22,4.22,0,0,1-1.23,0l-.35-.06c-.12,0-.24.06-.36.06s-.23,0-.32,0a3.47,3.47,0,0,1-.91,0c-.09,0-.18-.14-.3-.17a1.57,1.57,0,0,0-.61,0s-.09.11-.15.14a1.84,1.84,0,0,1-.74,0c-.2,0-.44,0-.67,0s-.53.06-.62,0-.06-.17-.12-.2a.22.22,0,0,0-.2.23.16.16,0,0,0,0,.09c-.21.15-.42,0-.62,0a2.58,2.58,0,0,0-.5,0,2.26,2.26,0,0,0-.35-.09,1.84,1.84,0,0,0-.33,0h-.32c-.21.06-.41.27-.62,0,.06-.09.18,0,.27-.06a.44.44,0,0,0,.17-.44c.15-.09.33,0,.5,0s.18-.09.3-.12c.47,0,.53.39.79.42a.26.26,0,0,0,.29-.12c.06-.3-.29-.24-.44-.33,0-.5.89-.29.59.15.18.18.3,0,.44-.06a3.78,3.78,0,0,1,.47-.06c.12,0,.24-.08.41-.14s.39-.21.53-.24S16.09.53,16.21.53Zm-15,5.62c0,.14-.12.2-.3.17C.88,6.12,1.12,5.91,1.18,6.15Zm-.33.47a1.53,1.53,0,0,1,0-.3C.91,6.29,1,6.62.85,6.62ZM29.41,6c0,.09-.09.15-.09.24a1.59,1.59,0,0,1,0,.41c-.06.23-.11.59-.26.62-.3,0-.09-.48-.09-.59,0-.3-.29-.47-.18-.77s.56-.12.56.12ZM1.35,6.62c.24,0,.06.62-.14.59a0,0,0,0,0,0,0c0-.12.08-.15.11-.24Zm-.7.29c.17,0,.32.18.17.3s-.14,0-.2,0S.56,7,.65,6.91Zm.29.3a.91.91,0,0,1,.24.2,1.13,1.13,0,0,1-.12.38c-.09,0-.09,0-.18,0s0,.48-.17.62a.68.68,0,0,1,0-.7c.08-.12.26-.09.29-.24S.91,7.29.94,7.21ZM.88,8.76C.91,8.85.82,9,.65,9,.47,8.79.79,8.56.88,8.76Zm-.06.89c.15,0,.39-.09.36.17-.21,0-.71.24-.56-.23.06-.06.09,0,.17.06Zm-.29.79a.18.18,0,0,1,0,.25l-.08.05C.21,10.74.24,10.38.53,10.44ZM29.59,8.21c0,.11-.15.2-.15.29a3.51,3.51,0,0,0,.15.53,3.71,3.71,0,0,1,0,.47c-.12.18-.44.15-.47.38s.12.24.12.36,0,.14,0,.23.06.18.06.29-.09.3-.09.42a.89.89,0,0,0,.09.29c0,.18-.09.38-.24.41-.15-.14,0-.32,0-.53a2.35,2.35,0,0,1-.09-.64c0-.09.09-.15.09-.24a7.43,7.43,0,0,0-.09-.76c0-.12.15-.24.15-.36s-.12-.23,0-.38.18,0,.23-.12a.31.31,0,0,0,0-.32c0-.09-.14-.15-.17-.21s.12-.26.12-.47a1.4,1.4,0,0,1,0-.29c.35-.15.5.2.41.59ZM.68,10.74c.17,0,.26.32.5.32.06.32-.15.65-.15.94,0,.06.06.15.06.21s-.09.11-.18.17-.15.18-.26.09a10.05,10.05,0,0,1-.06-1c.06-.06.12,0,.17-.12s-.08-.14-.11-.2A.81.81,0,0,1,.68,10.74Zm-.33,2c.06,0,.09.06.15.06.41-.23.5.39.24.53C.5,13.29.15,13.12.35,12.79Zm28.77.39c0,.14-.09.26-.12.41s0,.32-.09.38a1,1,0,0,1,0-.79.12.12,0,0,1,.24,0Zm-28.33.5c.12.08.15.5,0,.58s0-.14-.08-.17-.18.12-.3.09-.15-.39,0-.44A.8.8,0,0,0,.79,13.68Zm.09,1c.09.23.24.59.06.82-.09,0-.15-.12-.23-.15a.32.32,0,0,0-.12-.2c-.15.06-.06.12,0,.29s0,.27.17.3A.56.56,0,0,0,1,15.65c.09,0,.24.09.24.23s-.3.27-.36.47,0,.12,0,.18a2.34,2.34,0,0,1,0,.38c0,.09,0,.24-.09.3s-.14-.21-.2-.36a1.84,1.84,0,0,1-.15-.47c0-.09-.09-.2-.09-.32s.18-.59.18-.82-.15-.42,0-.53.06,0,.12,0S.82,14.59.88,14.65ZM.76,18.09c.06,0,.12.12.12.23a.35.35,0,0,1-.26.06.17.17,0,0,1,0-.17S.71,18.09.76,18.09Zm.18.82c.06,0,.09-.06.15,0,0,.18.15.3.12.47s-.39.21-.36.47a.12.12,0,0,1-.14,0,2.41,2.41,0,0,0,0-.38c0-.06,0-.12,0-.18S.59,19,.59,18.85s.26-.14.32.06Zm.21.94c.09.21,0,.59-.15.59a.59.59,0,0,1-.09-.56c.09-.06.15,0,.24,0Zm-.33.62c0,.15.24.15.33.24S1,21,1,21.18a.59.59,0,0,0,.09.2v.27c0,.2.14.38.06.5s-.21.09-.27.17,0,.15-.09.24a1,1,0,0,1-.23.12.42.42,0,0,1-.18.11c-.2-.26-.09-.64-.06-.94a9.5,9.5,0,0,1,.06-1.32.35.35,0,0,1,.38,0Zm28-5.62c.12,0,.06.18.06.36a2.07,2.07,0,0,0,.06.26c0,.15,0,.35,0,.59s0,.62,0,.91A9.38,9.38,0,0,1,29,18c0,.15-.18.21-.21.32s.15.18.12.47c0,.06.12.12.15.24l0,.23c0,.24.12.5.09.65s-.15.21-.18.3c0,.26-.12.44-.09.67s.12.21.12.35-.06.18-.06.27,0,.5,0,.73-.06.3-.06.42.06.29.06.41a.51.51,0,0,1-.23.29c-.09,0-.06-.17-.06-.26a1.06,1.06,0,0,1-.09-.36c0-.2.18-.32.15-.61,0-.09,0-.21,0-.3,0-.32.11-.64.09-.94s-.27-.32-.12-.56c-.15-.23-.06-.38,0-.64s0-.33,0-.45.17-.26.17-.41-.14-.14-.17-.32.06-.15.06-.29-.05-.44-.09-.65a4.21,4.21,0,0,1,.12-.71c0-.12,0-.23,0-.35v-.68a5.47,5.47,0,0,0,.05-.61S28.65,14.82,28.85,14.85ZM1.12,22.79c.12.15,0,.36,0,.53s-.24.21-.27.42.3.5.27.88A.88.88,0,0,1,1,25c-.06.41.35,1.29-.24,1.35-.14-.11-.05-.26-.05-.41s-.13-.49-.21-.73c0-.09-.09-.18-.09-.24v-.15c0-.08-.12-.17-.12-.26a1.15,1.15,0,0,1,.06-.29,7.68,7.68,0,0,0,0-.8.9.9,0,0,1,.09-.56c.15.06.18.15.32.12s.18-.24.33-.18Zm.38,4.12c.15,0,.06.24.12.38s.23.27.32.42.06.23.15.29.23-.09.35-.06.3.44.5.47.56-.2.59.09-.18.18-.32.15a1.19,1.19,0,0,0-.33,0l-.23-.12c-.12-.06-.24,0-.3-.06s-.23-.29-.38-.35H1.79c-.11-.06-.17-.24-.26-.36s-.15-.05-.18-.11a.6.6,0,0,1-.14-.56C1.32,27.06,1.38,26.91,1.5,26.91Zm13.21,2a.26.26,0,0,1,0,.21l.23-.06s0-.06,0-.15A.15.15,0,0,0,14.71,28.94Zm14.11-4.15a2.23,2.23,0,0,1-.08.24,4.83,4.83,0,0,0,0,.76c0,.12,0,.24,0,.39s0,.14,0,.2-.06.36-.06.53l.06.35a.41.41,0,0,1-.21.3.64.64,0,0,1-.24,0c-.2.06-.2.26-.29.47a2.3,2.3,0,0,0-.15.23c0,.06,0,.18,0,.24s-.14.15-.23.24a1.69,1.69,0,0,0-.5.08c-.18,0-.38,0-.56.06s-.24.15-.38.15a1.93,1.93,0,0,0-.41,0c-.12,0-.27.18-.45.21s-.35-.09-.52-.09-.53.17-.8.12h0a.69.69,0,0,1-.32,0,11.39,11.39,0,0,1-1.3,0,.5.5,0,0,1-.2-.15.57.57,0,0,0-.18,0,1.3,1.3,0,0,1-.21-.12c-.05,0-.26,0-.26-.15s.47.06.65-.05l.14.11c.18.09.27-.09.39-.11a1.06,1.06,0,0,1,.56,0,.31.31,0,0,0,.17.29c.38.09.35-.35.59-.35a.15.15,0,0,1,.09-.06c.12,0,.15.09.26.14a.58.58,0,0,0,.39.06c.08,0,.08-.11.17-.17a1,1,0,0,1,.38-.18c.09,0,.15.09.27.12a1,1,0,0,0,.35,0c.18,0,.3-.18.44-.18s.21.18.33.21a.64.64,0,0,0,.64-.53c0-.12.15-.12.21-.24s0-.17.06-.23.26-.06.32-.18c0-.32.27-.32.38-.53a3.14,3.14,0,0,0,.06-.32,1.18,1.18,0,0,0,.12-.41c0-.36-.26-.94-.12-1.15s.33-.06.3-.38c0-.09-.27-.36-.06-.39S28.88,24.53,28.82,24.79ZM8.91,28.38c.15.18.06.53.38.5.12,0,.18-.17.3-.2s.17.06.26.06a1.12,1.12,0,0,0,.62-.15c.21.12.47,0,.74,0,0,0,.14.06.23.06a7.72,7.72,0,0,1,.82-.06,4.31,4.31,0,0,0,.71.09,1.53,1.53,0,0,1,.85,0c.06.08-.08.11-.06.23s.42.24.62.18c-.06-.15-.32-.27-.38-.44.21-.15.44.05.71.05a1.41,1.41,0,0,0,.35-.05c.12,0,.23-.15.35-.18a5.4,5.4,0,0,1,1.27,0c.2,0,.41,0,.61.06.42,0,.92-.15,1.27,0,.09,0,.18.15.29.17s.41-.14.56,0-.15.23-.26.32a1.16,1.16,0,0,1-.39.26.7.7,0,0,1-.35-.06h-.29c-.12,0-.18-.2-.3-.2s-.2.15-.32.2-.12,0-.18.06c-.23.12-.85.21-.67-.32a.33.33,0,0,0-.36,0c.06.77-1,.29-1.58.44a1.08,1.08,0,0,0-.27.15,3.14,3.14,0,0,0-.32-.06.65.65,0,0,1-.24,0c-.09,0-.12,0-.14-.06a8.06,8.06,0,0,0-1,.06l-.32-.06-.38,0c-.35,0-.71-.18-1-.15a2.84,2.84,0,0,1-.47.15c-.15,0-.21-.09-.32-.12s-.24,0-.36,0-.23-.09-.32-.09-.38.12-.62.09c-.09,0-.18-.09-.26-.12s-.24,0-.36,0L8,29.15a3.48,3.48,0,0,0-.79,0c-.22,0-.43.07-.65.09A5.12,5.12,0,0,1,6,29.09c-.24,0-.47,0-.71,0A3.52,3.52,0,0,1,4.68,29c-.15-.06-.21-.21-.36-.26S4,28.79,4,28.65s.88,0,1,0a1.61,1.61,0,0,0,.38,0c.09,0,.12.06.21.06a3.5,3.5,0,0,0,1.29-.06,1.49,1.49,0,0,1,.3-.09,5.89,5.89,0,0,1,.64.12h.24s.12.17.17.17c.24-.09.36-.32.53-.47Z" transform="translate(-0.28 -0.44)"/><path id="path6" class="cls-1" d="M15.26,6.41c.09-.76,0-1.5-.32-1.2a3.36,3.36,0,0,0,0,.55c0,.39-.12.68-.09.92s.09.2.12.41a1.62,1.62,0,0,1,0,.62c0,.17-.15.11-.18.23a3.05,3.05,0,0,0,0,.74c0,.23-.08.44-.08.67,0,.53.08,1.09,0,1.56,0,.15,0,.27,0,.44a11.2,11.2,0,0,0,.08,1.3,4.3,4.3,0,0,0,0,1c.12-.06.18-.5.18-.83,0-.17-.06-.35-.06-.56s.06-.55.06-.82a3.9,3.9,0,0,1,0-.56c0-.15,0-.32,0-.47s-.09-.47-.09-.68c0-.47.27-.44.35-.76s0-.56,0-1-.11-.71-.11-1,.11-.35.14-.59ZM11,14.56a2.81,2.81,0,0,1-.74.35c-.08,0-.14-.12-.26-.15H9.71c-.3,0-.68-.08-.89-.08l-.41.06a8.23,8.23,0,0,1-1.79,0,2.07,2.07,0,0,1-.3,0,4.64,4.64,0,0,1-.53,0c-.17,0-1.38-.18-1.38,0s.27.09.41.06.3.18.47.21.59.05.89.06.64,0,1,0a5.86,5.86,0,0,0,.76.09c.27,0,.62-.06.88-.06a6.61,6.61,0,0,1,1.09,0c.15,0,.27.06.41.06h.5c.18,0,.24.08.39.08s.56-.08.85,0a2.76,2.76,0,0,1,.44.08,2.46,2.46,0,0,1,.47,0,2.46,2.46,0,0,0,.44.09c.18,0,.41-.09.62-.09.44,0,.94.09,1.41.09.18,0,.35,0,.53,0s.3.06.44.06c.44,0,.88-.09,1.36-.06l.2,0a1,1,0,0,1,.3,0c.17,0,.32.06.47.06a2.13,2.13,0,0,1,.38-.09c.79-.11,2.26.24,2.17-.35a.8.8,0,0,1,.53,0c-.26.38.59.32.92.23a1.72,1.72,0,0,0,.26,0c.15,0,.27-.15.44-.15s.21.12.38.15h.39a3.59,3.59,0,0,0,.47,0,2.81,2.81,0,0,0,.56-.18c.17-.06.44-.12.38-.24-.24-.08-.5.06-.8,0a3.14,3.14,0,0,1-.38-.14,11.68,11.68,0,0,0-1.76,0c-.3,0-.59,0-.89,0a12.9,12.9,0,0,0-1.76,0c-.21,0-.35.11-.5.14a1.84,1.84,0,0,1-.47.06h0l0,0,0,0c0,.09,0,.15,0,.18a1.53,1.53,0,0,1-.3,0,.32.32,0,0,0,0-.27l0,0h0a2.26,2.26,0,0,0-.73-.06l-.06,0c.12.15.47.21.56.33-.27,0-.83,0-.86-.15s.18-.12.09-.18a4.58,4.58,0,0,0-1.17,0c-.33,0-.62-.06-1-.06s-.8,0-1.15,0l-.3,0a4.1,4.1,0,0,1-1,0,3,3,0,0,1-.89.11,2.32,2.32,0,0,0-.38-.06c-.18,0-.26.15-.41.15C11.15,14.94,11.24,14.68,11,14.56Zm4.23,3c.09-.77,0-1.5-.32-1.21a3.49,3.49,0,0,0,0,.56c0,.38-.12.68-.09.91s.09.21.12.41a1.62,1.62,0,0,1,0,.62c0,.18-.15.12-.18.24a3,3,0,0,0,0,.73c0,.24-.08.44-.08.68,0,.53.08,1.09,0,1.56,0,.15,0,.26,0,.44a11.17,11.17,0,0,0,.08,1.29,4.26,4.26,0,0,0,0,1c.12-.06.18-.5.18-.82s-.06-.35-.06-.56.06-.56.06-.82a3.9,3.9,0,0,1,0-.56c0-.15,0-.33,0-.47s-.09-.47-.09-.68c0-.47.27-.44.35-.76s0-.56,0-1-.11-.71-.11-1,.11-.36.14-.59ZM19.15,2.5c2.59.38,4.88-.18,7,1A21.84,21.84,0,0,1,26.91,15c-.2,1,.27,1.88.09,2.82-.38,2.33,1.09,5.91-.29,7.8-1,1.35-4,1.7-6.06,1.41l-2.3-.62c-.61.15-1.29.77-2.23.71l-2.62-.5c-2.88.64-7.5,1.85-10.09-.8l-.82-5.76c-.35-2.12.67-5.27.29-7.3-.17-1-.7-2.17-.5-3.32.47-2.56,0-5.12,2-6.06S9.06,3.24,11.68,3c.85-.09,1.7-.65,2.94-.41C16.06,2.88,18.09,3.09,19.15,2.5Z" transform="translate(-0.28 -0.44)"/><g id="text12"><path id="path28" class="cls-2" d="M11.56,7a.12.12,0,0,1,.09,0,.09.09,0,0,1,.1,0h0a2,2,0,0,0,.35.21.09.09,0,0,1,.1,0,.69.69,0,0,0,.35.24s.05.09.16.15.2.24.29.24,0,.16.19.3,0,.15.1.15a.7.7,0,0,0,.19.27.35.35,0,0,0,.06.24l0,.09V9s-.07.08-.16.24a3.24,3.24,0,0,1-.51.12,1.61,1.61,0,0,1-.67.09c-.09,0-.13,0-.13,0l-.13,0h0a1.22,1.22,0,0,1-.29.06.13.13,0,0,0-.1,0s0,0-.12.06l0,0s0,0-.06,0h0l0,0v0a.91.91,0,0,1-.32.06v0a3.25,3.25,0,0,0-.54.21l-.07-.06s0,.06-.13.06l0,0a.3.3,0,0,1-.2.09v0h0a.52.52,0,0,1,.22-.06v0c-.17.08-.26.14-.26.18s-.05,0,0-.06l0,0s-.05,0,0-.06l-.06,0H9.92c.11-.08.17-.12.2-.12h0v0h.06V9.7a.58.58,0,0,0-.45.21h0v0h0V9.82h0v0h0V9.79c-.13,0-.19.07-.19.09v0s.05,0,.09.06V9.91h0q0,.09,0,.12c-.09,0-.13,0-.13,0H9.44V10l-.12.06c0-.06,0-.09-.13-.09s0,0-.13.06H9v0l.29-.12,0-.06v0l0,0a.12.12,0,0,0,0-.09h0l0,0a0,0,0,0,1,0,0l0-.06v0l.32-.18H9.57s0,0-.13,0v0l.1-.06a0,0,0,0,1,0,0l.13-.06v0c-.11,0-.16.06-.16.12l-.36.15a1.61,1.61,0,0,0-.54.09H8.52s0,0,0,0l-.32.06a0,0,0,0,0,0,0s0,0-.06,0a.15.15,0,0,0-.1,0c0,.08-.28.14-.77.18a2.72,2.72,0,0,0-.54.09l-.06,0s0,0-.1,0a0,0,0,0,1,0,0l-.26,0a0,0,0,0,0,0,0s0,0-.06,0a2.17,2.17,0,0,1-.74-.33H5.32A.55.55,0,0,0,5,9.46H4.9c0-.06-.06-.16-.26-.3a1.2,1.2,0,0,1-.19-.33c-.06,0-.1-.14-.13-.3a.23.23,0,0,0,0-.09v0q.23-.33.42-.3a5.4,5.4,0,0,0,.61,0v0q.6,0,1-.09L7.4,7.87a8.32,8.32,0,0,1,.86-.15s.09-.06.26-.06l.09,0,.16,0v0h0v0s-.06.07-.06.09l.1,0,.06,0v0L8.74,8l0,0h0l0,.09h0A10,10,0,0,0,10,7.72v0h0l-.7.21h0V7.81a.26.26,0,0,1,.16-.09V7.66H9.19V7.6a.49.49,0,0,1,.19-.06l0-.09a3.26,3.26,0,0,1,.73-.18c.54-.06.8-.12.8-.18s0,0,.13-.06h.07c0-.08.13-.12.35-.12Zm-1.7.48v0h.06c.15,0,.23-.07.23-.09h0c-.15,0-.23,0-.23.06Zm.77.12s0,0,0,.09,0,0,.09-.06l-.06,0Zm-.23.09h0c.1,0,.16,0,.16-.06h0C10.46,7.62,10.4,7.64,10.4,7.66Zm-.12,0s0,0-.07,0v0h.07v0s0,0,0,0,0,.06,0,.12l.13,0a0,0,0,0,0,0,0l0,0s0,0-.07-.06a0,0,0,0,0,0,0l-.09,0v0s0,0,.09,0v0Zm-.2.06v0h0v0Zm-.7-.09v0h0v0Zm.38.3v0h.07s.09,0,.29-.06a0,0,0,0,1,0,0V7.75h0a.42.42,0,0,1-.23.09s0,0-.13,0Zm-.7-.27h0v.06S9,7.7,9,7.72H9v0s0,0,.09-.06Zm-.42,0h0v0h0Zm.45.15h0a.07.07,0,0,1,0,.06c-.05,0-.08.06-.1.06l0,0a.12.12,0,0,0,0-.09Zm.74.72v0a.15.15,0,0,1,.13,0v0Zm-.29,0-.16.06.06,0c.13,0,.2,0,.2-.06Zm.13,0v0h.06v0l-.09,0Zm.16,0v0h0v0Zm-.19.09v.06h0l.06,0,0,0Zm0,.51,0,0,.1,0,0,0v0l-.06,0Zm0,.12-.07.06h0l.1,0v0Zm.12.06v0h0l0-.06Zm1.48.18h0s0,0-.07,0h0A.09.09,0,0,1,11.24,9.52ZM9.32,9.43h.06v0H9.32Zm.92.15v0h.07v0Zm-.06.06v0l.06,0v0A.09.09,0,0,0,10.18,9.64ZM9,9.55h.06v0H9Zm.48.12-.07.06h0a.09.09,0,0,1,.1,0S9.52,9.69,9.48,9.67Zm.25.15h0v0h0Zm-.41.06v0l.06,0v0A.09.09,0,0,0,9.32,9.88ZM10,10h0v0h0ZM8.9,9.88h0V10h0l0,0A.09.09,0,0,0,8.9,9.88Zm.26,0h0V10a.65.65,0,0,0-.19.09H9s.07-.06.2-.12Zm.38.12v.06l-.06,0v0Zm.19.06h0v0h0Zm-.38,0h0s0,0,0,.06H9.32Zm-.64,0h0v0H8.68Zm.51.09h0v0h0Zm-.1,0h0s.05,0,0,.06h0S9.12,10.22,9.12,10.18Zm-.32.21h0v0h0Zm.07.09h0v0h0Zm-.42.21h.07s0,0-.07,0Zm-.16.21v0H8.23Z" transform="translate(-0.28 -0.44)"/></g><g id="text14"><path id="path31" class="cls-2" d="M21.59,3.6a.77.77,0,0,1,.56.15c.09,0,.15.06.2.18s.16,0,.16.06l0,.12,0,.06s.07,0,.13.15a0,0,0,0,0,0,0s.07,0,.07,0v0s-.06,0-.17.09h0a.8.8,0,0,0-.27.06h0s0,0-.06-.09h-.07s-.06,0-.1.12l-.1,0a.1.1,0,0,1,.07-.06v0h-.07a0,0,0,0,1,0,0h-.13s-.05.08-.14.12h0s0,0-.1-.06h0v0h.07v0s-.05,0-.14.06l0,0s0,0,0,0h-.1v0l.1-.12s-.05,0-.1-.09h-.06v0h0a.13.13,0,0,1,0,.09c.05,0,.07,0,.07,0a.33.33,0,0,1,0,.15h0v0s0,0-.07.06a0,0,0,0,0,0,0A.27.27,0,0,1,21,5c.11,0,.16.07.16.09v.15a0,0,0,0,1,0,0v.12h.07L22.18,5V4.89l0-.09q0-.18.3-.21v0a.09.09,0,0,1,.06,0h.07l.13,0h0l0,0a.47.47,0,0,0,.19,0s0,0,0,0,.1,0,.1.06h.09a.3.3,0,0,1,.3.15c.11,0,.18.06.2.12a1.13,1.13,0,0,0,.23.15l0,0v.09s0,0,0,0a.45.45,0,0,1,0,.24l0,0c0,.06-.05.12-.14.18a3.33,3.33,0,0,1-.59.63v0l0,0h0s-.05.07-.16.15l0,0h0s0,.06,0,.06,0,0,0,0l-.06.09H23v0a0,0,0,0,1,0,0l0,0s0,.06,0,.06l0,.09s0,0,0,0a0,0,0,0,0,0,0s0,.08-.13.12h0s-.05,0-.07-.12a.66.66,0,0,0-.23.18,0,0,0,0,1,0,0v0h0v0h0l-.23.06s0,0,0,0L22,6.81s.06,0,.06,0l0,0a.37.37,0,0,1,.16.12,1,1,0,0,1,.33.06.72.72,0,0,0,.33.21.09.09,0,0,0,0,.06l0,.12c.06,0,.1,0,.1.06s0,0,0,.06l0,.09v.09a.31.31,0,0,0-.1.15,1.06,1.06,0,0,0-.27.18.91.91,0,0,0-.56.24l-.33.18s0-.06,0-.06q-.63.3-.6.54s0,0,0,.09l0,0v.12h.07v0h.07l.1,0v0A.57.57,0,0,1,21.75,9h.07a1.53,1.53,0,0,1,.63-.12s.09,0,.29-.06v0l.46-.15a1,1,0,0,0-.13-.24V8.4h0v0h0s0-.06,0-.06a3.21,3.21,0,0,0,.43.18l.17,0s0,0,.13,0l.06,0s0,0,.1.06a.11.11,0,0,1,.07,0s.11.07.26.09c0,0,0,0,.1.09l0,0a1.92,1.92,0,0,1,.57.36v0l0,0s0,0,0,.06,0,.05,0,.15a.48.48,0,0,1-.26.15.09.09,0,0,1-.07.09h0a4.58,4.58,0,0,1-.56.15h0s0,0,0,0a.09.09,0,0,1-.06,0l-.07,0,0,0h-.13a2.49,2.49,0,0,0-.53-.12s0,0,0,0a.7.7,0,0,1-.29,0l-.37,0v0h0l.13,0v0c-.09,0-.13,0-.13,0l0,0a0,0,0,0,1,0,0l-.33.06v0a.51.51,0,0,1-.2.06h0l0,0s0,0,0,0a1.9,1.9,0,0,0-.52.15.07.07,0,0,1,0,.06c.07,0,.12.09.17.27s-.22.2-.6.36a.08.08,0,0,1-.09.09l.06.12s0,.06-.06.06l0,.09c0,.1,0,.15-.13.15v0l0,0h0s.06.05.1.15-.05.06,0,.18a.09.09,0,0,0,0,.06.24.24,0,0,0,0,.15.09.09,0,0,1,.06,0l-.06.06a0,0,0,0,0,0,0v.06l0,0h0v.12l0,.12a.56.56,0,0,0,0,.15l0,.09h0v.06a.89.89,0,0,0-.07.24,0,0,0,0,1,0,0l0,.06c.05,0,.08.05.1,0l0,.06a0,0,0,0,1,0,0v0a0,0,0,0,1,0,0q0,.12.06.12v.09L21,13a1.29,1.29,0,0,1,.19.36.44.44,0,0,1-.09.15h-.2l-.17.06c-.06,0-.15-.09-.26-.27a2.5,2.5,0,0,0-.43-.36.26.26,0,0,0-.07-.12h.07s.05.09.16.15h0v0a.1.1,0,0,1-.1-.06l0,0a.22.22,0,0,0,.1.09s.06,0,.17.09l.06-.06,0,0,0,0a.09.09,0,0,1,0-.06,1.18,1.18,0,0,0,0-.36l0,0,0,0a0,0,0,0,0,0,0v-.27h0a.23.23,0,0,0,0-.09,5,5,0,0,1,0-1.11h0l-.26.15h0V11q.09,0,.33-.27v0s0,0-.07,0l-.2.18h-.13v0H20s-.06.09-.19.15a1.69,1.69,0,0,0-.37.24.09.09,0,0,1-.06,0l.1-.06v0l-.2.09,0,0,0,0s0,0,0,0,0,.09-.06.09,0,0-.07,0,0,.06-.13.12a0,0,0,0,1,0,0,0,0,0,0,0,0,0h0s0,0,0,0l0,.06a5.24,5.24,0,0,1-.83.51l.79-.51v0a4.75,4.75,0,0,0-.85.51V12l0,0h0v0s0,0-.1.06l0,0,0,0h0l-.16.09s0,0-.07-.06.14-.12.16-.12a14.33,14.33,0,0,0,2-1.5,1.58,1.58,0,0,0,.43-.48v0l-.1,0s0,.06,0,.06a0,0,0,0,0,0,0,2.59,2.59,0,0,1-.76.51l0,0,.09,0v0a4.38,4.38,0,0,0-.66.24h-.16l0,0h-.1a.61.61,0,0,1-.23.06s-.05,0-.07,0a.31.31,0,0,1-.13,0s-.09,0-.27-.06a1.31,1.31,0,0,1-.42-.24c-.07,0-.1,0-.1-.12l0-.12s.05-.06.14-.12a0,0,0,0,1,0,0,3.23,3.23,0,0,1,.69-.18l.23-.09h.07a0,0,0,0,1,0,0,0,0,0,0,0,.07,0s0,0,.06-.06h.07a0,0,0,0,1,0,0,3.57,3.57,0,0,1,.53-.18l.43-.12s-.06,0-.17-.06-.05,0-.16-.06a.09.09,0,0,0,0-.06l0,0s-.08-.05-.13-.15a.54.54,0,0,0-.16-.09c0-.08-.06-.14-.17-.18l-.3-.42v0s0,0,0,0l0,0V8.37q.14-.24.24-.24s.06-.06.19-.12a.09.09,0,0,0,.1,0s0,0,0,0q.33,0,.39.12l0,0a1,1,0,0,1,.24.18v.09a.71.71,0,0,1,.19.18q.27,0,.27.12v0a.51.51,0,0,0-.1.21h0v.06a.54.54,0,0,1-.3.45c-.05,0-.07,0-.07.06v0c.38-.1.56-.19.56-.27s.17-.18.17-.54l0-.15V8.43s0,0,0,0l0-.06a1.25,1.25,0,0,0-.17-.48v0c0-.08.07-.14.26-.18v0a.38.38,0,0,1-.16,0h0l-.07,0-.16,0-.33,0-.07,0h0l-.07,0v0l-.2.06c-.2,0-.29,0-.29-.09V7.5a.29.29,0,0,0,.06-.21.1.1,0,0,0,.07-.06h.2A2.51,2.51,0,0,1,20,7.11s0,0,0,0v0c.06,0,.1,0,.1-.06a.07.07,0,0,1,0-.06l0,0h.06l.07-.06h0v0a2.11,2.11,0,0,1,.3-.48,4,4,0,0,0,.2-1v0h0l-.6.33.07.15h0l0,0,0,.06a.22.22,0,0,1,.13.09.55.55,0,0,1,0,.24.07.07,0,0,1,0,.06s-.05.06-.07.18-.13.18-.2.18l0,0-.1-.06s0,0,0,0a.12.12,0,0,1-.09,0l-.14.06s0-.06,0-.06a1.18,1.18,0,0,1,0-.36l0,0c0-.16,0-.24.07-.24v0h0a5.82,5.82,0,0,0-1.18.87,1.5,1.5,0,0,0-.24.42.17.17,0,0,1-.06.21,1.32,1.32,0,0,1,.16.51c-.06.12-.11.18-.13.18A.57.57,0,0,0,17.89,8a1.28,1.28,0,0,1-.39-.3s-.05,0-.07-.09-.07,0-.07,0l0-.06c-.07,0-.15-.15-.23-.45,0-.06,0-.09,0-.09a0,0,0,0,0,0-.06v0a.33.33,0,0,0,0-.15V6.6l0,0c0-.1.07-.2.23-.3,0,0,.06,0,.2-.06s.19.11.19.15a.9.9,0,0,0,0,.15,2.64,2.64,0,0,0,.26.39,1.74,1.74,0,0,0,.47-.33,7.49,7.49,0,0,1,1.22-.72V5.67a1.84,1.84,0,0,0-.07-.24s.06,0,.1-.12a.51.51,0,0,0-.2.06l-.2,0a0,0,0,0,1,0,0l0,0,0,0h0l-.1,0,0,0a.37.37,0,0,1-.16-.06l0,0h0a1,1,0,0,0-.23-.12,0,0,0,0,1,0,0l0,0s0,0,0,0a.47.47,0,0,1-.33-.39q0-.21.69-.33a5.79,5.79,0,0,0,1-.39A.28.28,0,0,0,20,4V4a1.37,1.37,0,0,1,.26-.12,0,0,0,0,1,0,0A5.82,5.82,0,0,1,21,3.6a.52.52,0,0,1,.26-.12s.08-.07.24-.15t.06-.06Zm-.93,1.05h0c.06,0,.1-.05.1-.09v0C20.71,4.59,20.66,4.63,20.66,4.65Zm.86-.09v.06h0a.05.05,0,0,1,.06-.06v0h0A.11.11,0,0,1,21.52,4.56Zm.1,0v0h0v0Zm-.89.12h0s0,0,0,0h0A0,0,0,0,0,20.73,4.68Zm.66-.09v0h0v0Zm-.26.18s-.05.07-.14.09v0h.17l0-.09Zm.29.06v0h0A0,0,0,0,1,21.42,4.83ZM21,4.92V5h.06v0Zm.43-.06,0,0,0,0h0s0,0,.07-.06Zm-.1.75,0,.12a1.66,1.66,0,0,0-.07.3s0,.06-.06.18-.08.18-.1.18l0,0a.75.75,0,0,1-.2.33c0,.08,0,.13-.19.15l-.07-.06h0c-.14.1-.2.16-.2.18s-.12.06-.17.18-.08.06-.19.18h0c.53-.14.79-.25.79-.33l.17-.15a0,0,0,0,1,0,0,1.34,1.34,0,0,0,.46-.39A3,3,0,0,0,22,6a1.54,1.54,0,0,1,.16-.39,3.07,3.07,0,0,0,.13-.6,5.13,5.13,0,0,0-.92.39Zm-1.16,0H20c-.11,0-.17.07-.17.09h0l0,0v0a0,0,0,0,1,0,0l0,0v0a0,0,0,0,1,0,0l.06.15s0,0,0,0H20l.63-.33V5.55a.37.37,0,0,1-.06-.15h0Zm-.53.09v0l.07,0v0Zm3,.87v0h0v0Zm-.1.15h0a.11.11,0,0,1,.07,0V6.66s-.05,0-.07.06Zm.26,0h.07v0h0A0,0,0,0,1,22.84,6.78Zm0,.09v.06a0,0,0,0,1,0,0V6.9A0,0,0,0,1,22.81,6.87Zm.1,0h0V7a.09.09,0,0,1-.06,0Zm-.27,0h0V7h0Zm-2.41.33h0v0S20.23,7.24,20.23,7.26Zm.8-.09v0h0v0Zm.06.84V8s0,0,0,0h.09a.13.13,0,0,0,0,.09l0,0h0l0,.06a0,0,0,0,1,0,0l0,.15s0,0,0,0l0,0a.34.34,0,0,1,0,.15h0c.33-.26.48-.44.46-.54h-.1a1.09,1.09,0,0,0-.36.12h0c.05-.06.08-.09.1-.09V8h0a.09.09,0,0,1-.07,0s-.06-.05-.13,0h0Zm1.78.51h0v0h0Zm0,.06h0v0h0Zm-3.6,2.19v0h0v0Zm2.05-.15a1.58,1.58,0,0,0,.49.09s.24.12.73.24q0,.06.39.09l.14.06s.08,0,.26.06l.63.15a3,3,0,0,0,.52.15v0h.14l.56.24a.14.14,0,0,1,.13.15l.07,0a.1.1,0,0,0,.09.06v0l0,0a.1.1,0,0,1,.1.06,0,0,0,0,0,0,0l-.17,0a1.44,1.44,0,0,0-.36.15,1.74,1.74,0,0,1-.36.15s0,0,0,0h-.1l-.23.06h-.1s-.07.06-.09.06,0,0-.1-.06l-.1,0h-.07l-.16.06a.68.68,0,0,1-.47-.09.42.42,0,0,1-.29-.12.42.42,0,0,1-.33-.18,0,0,0,0,0,0,0,.3.3,0,0,1-.23-.15.89.89,0,0,1-.23-.18V11.7a4.25,4.25,0,0,1-.76-.63,1.45,1.45,0,0,0-.2-.15l0-.09c0-.12,0-.18.2-.18Zm-1.49.78,0,0v0c-.06.16-.1.24-.13.24a0,0,0,0,0,0,0A.38.38,0,0,1,19.87,11.4Zm-1,.27v0H19v0Zm-1.38.81,0,0,0,0h0v0A0,0,0,0,1,17.53,12.48Zm.26,0v0s0,0-.06.06h0s0,0,.07-.06Zm-.13,0v0c-.26.26-.45.39-.56.39H17c-.09,0-.14,0-.16-.09s.13-.09.39-.15a3.34,3.34,0,0,1,.46-.18Zm2.44.81v0h0v0Z" transform="translate(-0.28 -0.44)"/></g><g id="text16"><path id="path34" class="cls-2" d="M7.07,16.27l0,0,.1,0h.21s0,0,0,0l0,0a1,1,0,0,1,.34.28.09.09,0,0,1,.09.05.09.09,0,0,1,0,.06L8,16.8a.34.34,0,0,1-.18.39.48.48,0,0,0-.16.08v0l-.12.08h-.1s-.09.09-.28.22a1.46,1.46,0,0,1-.37.28v0s0-.06.06-.06v-.06l-.12,0h0s0,0,0,0h0l0-.08h0s-.07.06-.19.08A2.15,2.15,0,0,1,6,18a0,0,0,0,1,0,0,.66.66,0,0,0-.16.11l0,0a1.44,1.44,0,0,0-.28.25.16.16,0,0,0-.18.14l-.38.33h0a1.36,1.36,0,0,1,.44-.53,8,8,0,0,0,1.33-1.57s-.06,0-.06,0v0a.09.09,0,0,1,0-.06.09.09,0,0,1,0-.05v0c.06-.11.13-.17.21-.17s.08-.06.22-.06Zm3.57.22a.8.8,0,0,1,.4.11.87.87,0,0,1,.44.31.22.22,0,0,1,0,.14v.06s.06.07.12.22,0,0,0,.06l0,0,.06.09v.14s0,.05-.06.05l0,.09v0L11.6,18l0,0a3,3,0,0,0-.28.7l-.06,0h0l-.06,0a.39.39,0,0,1,0,.14.63.63,0,0,0,0,.14c.07.08.11.12.13.12v0L11.2,19v0h0a.73.73,0,0,1,.18.23l0,.05,0,0,0,.25,0,0,0,0s0-.06-.09-.11a.09.09,0,0,0,0-.06.09.09,0,0,1,0,0h0v0h0s-.06,0-.12-.11a.09.09,0,0,0,0-.05l.06,0h0a2,2,0,0,1-.13-.25H11.1l0,.06v.05l-.09.23a0,0,0,0,0,0,0v.08l0,.11s0,.06,0,.06a0,0,0,0,0,0,0c0,.15,0,.22,0,.22l0,0v-.08h-.13v0c0,.05,0,.08.06.08a0,0,0,0,1,0,0,0,0,0,0,0,0,0v.06s0,0,0,0h0l0,0v0h0s0,0,0,0h0V20h0v-.05h0s0,0,0,0V20a.05.05,0,0,1,0,.05.09.09,0,0,1,0,.06,0,0,0,0,1,0,0l0,0v0a1.19,1.19,0,0,1,0,.17.44.44,0,0,1,0,.14h0s0-.06,0-.06h.06v0h.06v0h0v0h0v-.06h0l.07,0h0a.1.1,0,0,1,.06-.09,0,0,0,0,0,0,0s0-.05,0-.05v0h0l0,0v0c.07,0,.1,0,.1-.05a0,0,0,0,1,0,0l0,0h0l.28-.14s0,0,.1-.06-.05-.06-.13-.14v0l0,0h0s0,0-.06-.08v0l0,0h0v0l0,0,0,0,.07,0h.06l.25-.05a.84.84,0,0,1,.27.05l.16-.08a1.62,1.62,0,0,1,.84.25v0l0,.05v.09l-.22.14c0,.07-.1.12-.31.14a0,0,0,0,1,0,0,5.31,5.31,0,0,1-.81.14l-.09,0a0,0,0,0,1,0,0s0,0-.06-.06,0,.09,0,.09l0,0a0,0,0,0,1,0,0l0,0s-.07.09-.21.16,0,0-.07,0,0-.08,0-.08,0,0-.09.08h0s0,0,.06,0v0h-.06v0l0,0a0,0,0,0,0,0,0h.06l.06-.06,0,0s0,.05-.12.09a.09.09,0,0,0-.06,0,0,0,0,0,1,0,0,.09.09,0,0,1,0-.06h0l-.07.06h0l0,0v-.09h0l-.12.09v0h0a.09.09,0,0,1,.06,0,0,0,0,0,0,0,0A.24.24,0,0,1,11,21v.08s0,.05.09.09a0,0,0,0,1,0,0l0,0v0a0,0,0,0,1,0,0l0,0v0h0v-.14s0,0,0,0l0,0q0,.09,0,.09l0,0a1.5,1.5,0,0,0,0,.17,0,0,0,0,1,0,0,0,0,0,0,0,0,0,.09.09,0,0,1,0,.05h0a0,0,0,0,0,0,0v.06l0,.08c0,.13,0,.2,0,.2l0,0v0a0,0,0,0,1,0,0l0,0v0s0,.05-.09.05v.06l0,0h0v.14l0,0h0v.05a0,0,0,0,0,0,0v.09l.06.92,0,0,0,0v.14l0,.08a0,0,0,0,0,0,.06v.05a.16.16,0,0,1,0,.11h0v0a.17.17,0,0,1,.12.06v0h0v0h0v0s0,0,0,0-.06,0-.06,0a.09.09,0,0,1,0,.06,0,0,0,0,0,0,0,.09.09,0,0,0,0,.05l0,0c0,.06,0,.08.06.08s0,.06,0,.06a.11.11,0,0,1,0,.08h0l0,0,.09.25v.08a.09.09,0,0,1,0,.06,0,0,0,0,0,0,0l.16.33s.08.09.18.25v.09l0,.08-.22.17-.09,0-.35-.14-.09,0H11a.85.85,0,0,1-.22-.14,2.42,2.42,0,0,1-.34-.45.09.09,0,0,1-.06,0l0,0,0-.08h.06l0,0s0,0-.06-.11h0l0,0a0,0,0,0,1,0,0,.11.11,0,0,0,.07,0,.8.8,0,0,1,.06-.17s-.06,0-.06,0v0h0l0,0s0,0,0,0-.07,0-.07-.06l.07,0v0s0,0-.07,0,0,0,.07,0a.87.87,0,0,1,0-.14l0,0h0v-.12h0l.07,0,0,0v0h0v0a0,0,0,0,1,0,0L10.58,24l0-.17s0,0,0,0v-.09h0v0h0v-.08s-.06,0-.06,0v0s0,0,.06,0,0,0-.06,0v-.05h0v0h0a0,0,0,0,0,0,0s0,0-.06-.09l0-.05h0l0,0,0-.09v0s0,0,.07,0v0h-.07v0s0,0,0,0a0,0,0,0,0,0,0v0l0-.08a0,0,0,0,0,0,0,0,0,0,1,1,0-.06l0-.14a.05.05,0,0,0,0-.05,0,0,0,0,0,0,0v-.14h0l0,0v0s0,0-.06,0v-.11l0-.17c.07,0,.1,0,.1-.05a.13.13,0,0,0-.1,0v0h0l0,0v-.14l0,0V22h0l.09,0a.09.09,0,0,1,0,0h-.06l0,0,0,0v0s0,0,.07-.06l-.07-.08v0a.07.07,0,0,0,0-.06h0l0,0v-.05a0,0,0,0,1,0,0l0,0-.06,0a.09.09,0,0,0,0-.05l0,0a2.83,2.83,0,0,1-.59.31c-.23.11-.34.17-.34.19a5.72,5.72,0,0,1-.56.28,1.08,1.08,0,0,1-.28.06.44.44,0,0,1-.37-.23,1.5,1.5,0,0,1-.16-.42l0,0c0-.12.09-.18.28-.2s.21-.16.37-.48c0-.13,0-.2,0-.22s-.14-.25-.18-.25v0a0,0,0,0,1,0,0l-.1-.19s0,0,0,0-.06,0-.1-.11.1-.23.22-.23h.22a.56.56,0,0,0,.21.17L9,20.1a.22.22,0,0,0,.13.06,1.07,1.07,0,0,1,.34.33l0,0c0,.17,0,.25-.09.25a.21.21,0,0,0-.19.12.7.7,0,0,0-.4.08.21.21,0,0,0-.06.08.75.75,0,0,0-.28.28.3.3,0,0,0-.06.14v.06h0a5.26,5.26,0,0,0,.93-.36.37.37,0,0,0,.21-.09h0s0,0,0,0a.37.37,0,0,1,.24-.17l.1-.05h0s0,0,0,0l.12-.05,0,0a.47.47,0,0,1,.16-.11l0-.09.06,0v-.06a.09.09,0,0,1-.06,0l.06-.11v-.06l0-.05s0,0,.06-.06l0,0s0-.06,0-.06l0-.06s.06,0,.06-.08a0,0,0,0,1,0,0v0s.06,0,.06-.11h0v0h0a0,0,0,0,1,0,0,.2.2,0,0,0,0-.08l.06,0h0a0,0,0,0,1,0,0,.09.09,0,0,1,.06,0v0c-.06,0-.09,0-.09-.05l.06-.06v-.06s0,0,0,0v.05h-.06v-.17h0s0,0,0-.08h0l0,0,0,0,0,0a.09.09,0,0,1-.06,0c0-.06,0-.08.06-.08l0,0,0,0a0,0,0,0,1,0,0,.28.28,0,0,1,.13,0,.51.51,0,0,1,0-.11h0v0h0s0-.07,0-.08,0-.12.13-.12,0,0,0,0v-.14q-.09,0-.09,0a0,0,0,0,0,0,0l0-.06s.06,0,.06,0l0,0h0v-.05l0-.06s0,0,0,0-.06,0-.1-.08l0,0a0,0,0,0,1,0,0s0,0,0-.05l0,0h0v-.06c-.05,0-.07,0-.07,0s0,0,.07,0v-.05h-.07v0h.07v-.11a.13.13,0,0,1,0-.09l0,0,0-.09v-.08s.05,0,.07-.06a0,0,0,0,0,0,0v-.08l0-.17h0a.4.4,0,0,0-.07-.14,0,0,0,0,0,0,0v0a.09.09,0,0,0,0-.06l0,0a.09.09,0,0,1,0-.05.09.09,0,0,1,0-.06.27.27,0,0,0-.06-.14v-.08a.27.27,0,0,1,0-.12.49.49,0,0,1,.28-.14ZM7.1,18.09h.13a.43.43,0,0,1,.43.28.39.39,0,0,0,0,.14.09.09,0,0,0,0,0,.09.09,0,0,0,0,.06s0,0,.06.08a.57.57,0,0,0,.28.14L8.1,19h.06v0a0,0,0,0,1,0,0,0,0,0,0,0,0,0l0,.08v.06a.09.09,0,0,1,.09.05,0,0,0,0,0,0,0l.06.06a.35.35,0,0,1-.28.16.2.2,0,0,0-.06.14,2.65,2.65,0,0,0-.4.37c.14.15.22.22.25.22l0,.09a.81.81,0,0,1-.19.58,1.56,1.56,0,0,1-.19.4.07.07,0,0,1,0,.05s-.1.08-.16.23a2.33,2.33,0,0,0-.19.22v0l.07.05V22s0,0-.07.06,0-.06,0-.06V22H7S7,22,7,22a.18.18,0,0,0-.06.14l0,0s0,0,0,.05H7c0-.05,0-.08.09-.08s.07-.07.19-.11a.77.77,0,0,1,.34-.25,0,0,0,0,1,0,0l.06,0,0,0a.2.2,0,0,0,0,.08,0,0,0,0,1,0,0l0,0,0,0c0,.06,0,.08-.06.08l0,0L7.51,22l0,0c-.13.13-.21.2-.25.2v0h0v.05c-.06,0-.09.06-.09.17l0,0,.09,0v0a.7.7,0,0,1-.12.2l0,0,0,.08a0,0,0,0,1,0,0h0a.05.05,0,0,1,0-.05.36.36,0,0,0-.16.25.09.09,0,0,1,0,.06H7a.7.7,0,0,1,0,.14H7s0,0,0,.08H7s0-.06,0-.06l0-.08V23.1h0v0l0,.11s0,0,0,.08a0,0,0,0,1,0,0v0a.1.1,0,0,1,0,.08.7.7,0,0,0,0,.14l0,0,0,.11h0l0-.31a.09.09,0,0,0,0-.05.09.09,0,0,0,0-.06v-.05h0l.06.44h0a.09.09,0,0,1,0,.06A10.28,10.28,0,0,0,7.38,25l0,.05.16.48-.13.05a.19.19,0,0,0-.18.12l-.07,0c-.08,0-.23-.14-.46-.42L6.61,25c.06.1.12.14.18.14h0s0,0,0,0V25l0-.06v0s0,0,0,0l0,0,0-.36a0,0,0,0,1,0,0,1.49,1.49,0,0,0-.06-.23h0l0,0,0-.26,0-.11h0l0,0V23.8a0,0,0,0,1,0,0l0,0v-.19a.49.49,0,0,1,0-.2h0c0,.06-.12.16-.37.31a.69.69,0,0,1-.25.08H5.86c-.06,0-.18-.17-.37-.45a.68.68,0,0,0-.09-.22l-.06-.14v-.06a.2.2,0,0,1,.18-.14.76.76,0,0,0,.19-.25h.06a.05.05,0,0,1,0-.05.09.09,0,0,1,0-.06l.06,0a0,0,0,0,0,0,0s0-.07.1-.08,0-.17.09-.17h0V22a0,0,0,0,1,0,0v0a.09.09,0,0,1,.06,0v-.11h0v0h.07l0,0h0l0,0a.43.43,0,0,0,.15-.22s0,0,.06-.09a1.86,1.86,0,0,0,.28-.45,1.27,1.27,0,0,0,0-.28v0h0c0,.05-.05.12-.15.19l-.34.23-.44.11-.06,0,0,0h0a.52.52,0,0,0-.31-.09A.45.45,0,0,0,5.06,21a1.14,1.14,0,0,0-.25-.28,0,0,0,0,0,0,0s0,0-.06-.06v-.05s0,0-.06-.09.12-.22.37-.22l0,0a.09.09,0,0,0,.06,0,0,0,0,0,0,0,0l.1,0h0a.31.31,0,0,1,.12-.06,0,0,0,0,0,0,0,1.05,1.05,0,0,1,.34-.17s.1-.08.22-.14l.4-.31.22-.16a.9.9,0,0,1,.15-.23.07.07,0,0,1,0-.05s0,0,0,0l0-.09V19a.07.07,0,0,0,0-.06.05.05,0,0,0,0-.05.07.07,0,0,0,0-.06V18.7s0-.07-.12-.17v-.08a.94.94,0,0,0,.12-.2l.28-.14s0,0,.07-.05a.09.09,0,0,0,.06,0,0,0,0,0,1,0,0Zm3.32.22v0a0,0,0,0,0,0,0v0A0,0,0,0,0,10.42,18.31Zm-1.77.06h.1c.43,0,.65.09.65.16a.24.24,0,0,1,.18.12c.05,0,.1,0,.16.14a.85.85,0,0,1,.22.33c0,.1-.13.19-.38.28a0,0,0,0,1,0,0,.88.88,0,0,0-.52.2H9A.43.43,0,0,1,9,19.35v-.06l0-.08a0,0,0,0,0,0,0,1.74,1.74,0,0,0-.34-.34c-.07-.11-.12-.17-.16-.17s0-.11-.15-.16v0a.41.41,0,0,1,.31-.11Zm1.77.05v0a.09.09,0,0,0,0,.06h0v0S10.38,18.44,10.42,18.42Zm.37.23v.05s0,0,.06-.05l0,0Zm0,.08,0,.08s.07,0,.09-.08a.09.09,0,0,1-.06,0Zm-.28.08a0,0,0,0,0,0,0v0Zm.38,0s0,.06-.1.06a0,0,0,0,0,0,0l0,.06c.08,0,.12.06.12.08a.17.17,0,0,1,.1,0v-.05l0-.09Zm-.5.23s0,0,0,0h0Zm.15,0v0h0v0Zm.19.14h0l.06,0,0,0a.09.09,0,0,1-.06,0l0,0v0h0v0a0,0,0,0,0,0,0h0c0,.09,0,.14-.09.14v0l.09,0a0,0,0,0,0,0,0,.12.12,0,0,1,.1-.12v.06h0s0,0,.06-.06a.05.05,0,0,1,0-.05l.06,0a.23.23,0,0,1,0-.11.09.09,0,0,0,0-.06,0,0,0,0,1,0,0s-.06,0-.12.12,0,0,0,0Zm.62-.14v0h0v0Zm-.81.12v0h0v0Zm.28.25v.05l0,.09h0a0,0,0,0,0,0,0v-.08Zm.69,0h0s0,0,.06.05v0s0,0-.06-.05Zm-.87.25h0a.09.09,0,0,1,.06,0v-.05S10.68,19.65,10.64,19.71Zm1-.06h.06v0H11.6Zm-1,.12s0,0,0,0h0v-.05h0a.09.09,0,0,1-.07,0Zm.12,0v.09h0v-.09Zm.93,0h0s0,0,.06.05v.06h0s0,0-.06-.06Zm-.87.08v0l.06.11a.11.11,0,0,1,.07,0v0l-.1-.14a0,0,0,0,0,0,0Zm.06.14v.08h0V20Zm0,.14a0,0,0,0,0,0,0l0,.08v.06a0,0,0,0,0,0,0l0-.06s0-.05,0-.14Zm1,.11a.07.07,0,0,1,0,.06s0,0,.1.05.06,0,.06-.05A.12.12,0,0,1,11.82,20.24Zm-.1.09v0h0S11.74,20.33,11.72,20.33Zm-.12.05v0h0v0Zm-.78,0v0h0v0Zm.5.08q-.09.06-.09.09h0l.12-.09v0Zm.15.06v0h.1a0,0,0,0,0,0,0Zm-1.2.14,0,0h0l0,0a0,0,0,0,0,0,0h0A0,0,0,0,0,10.27,20.69Zm.68,0v0H11v0Zm.18.06h0v0A0,0,0,0,0,11.13,20.72Zm-.49.05,0,0h0l0,0Zm.74,0h0v0h0Zm-.62.14v0h0v0Zm-2.85.42v0a0,0,0,0,1,0,0v0S7.89,21.31,7.91,21.31Zm-.06.05h0a0,0,0,0,1,0,0h0A0,0,0,0,1,7.85,21.36Zm2.82.06v0h0v0Zm0,0v.06h0v0A0,0,0,0,0,10.7,21.47Zm-3,0h0v0h0Zm-.09,0h.06a.09.09,0,0,0,0,.06h0Zm3.26.06v0h0v0Zm-.1.05a0,0,0,0,0,0,0v0Zm-.06,0-.09.11v0h.09a.23.23,0,0,1,0-.11Zm.34,0h0v0h0Zm-4,.14v0h0v0Zm4,0h0v.05h0ZM7.29,22v0h0v0Zm3.19,0v.08h0V22Zm.37.08a.12.12,0,0,1,0,.09l.07,0a.16.16,0,0,1,0-.11Zm-4.52,0h0v0A0,0,0,0,0,6.33,22.09Zm.09,0v0h0v0Zm-.18.06v0a.09.09,0,0,1,.06,0l0,0v0h0s0,0,0,0Zm4-.06h0v0h0Zm-3.94.08a.27.27,0,0,1,0,.12l0,0h0v0s0,0,0,0v0h0v0a0,0,0,0,1,0,0l0,0,0,.05,0,.09a.18.18,0,0,0-.16.11h0v0l-.09,0a0,0,0,0,0,0,0h0s.05,0,.16-.08.08-.08.25-.17a.11.11,0,0,0,0-.08h0l0,0,0,0-.06-.09v-.08H6.55s0,.08-.1.08l-.06.11h0s0,0,0,0l.09-.14v-.06s-.06,0-.06.06l0,0,0,0v0h0Zm4.34,0v0l.09,0v0l-.06,0Zm-4.12,0v0a0,0,0,0,0,0,0Zm3.87,0v0h0v0Zm-3.72,0v.09l0,0A.09.09,0,0,1,6.7,22.2Zm4,0v0h0v0Zm-.25,0v0s0,0,0,0A0,0,0,0,0,10.48,22.26Zm-4.34,0v0h0v0Zm.06.05v0s0,0,0,0a.09.09,0,0,1,0-.06l-.07,0Zm0,.09v0h0v0Zm.13,0h0v0h0Zm-.16,0a.09.09,0,0,1,0,.06h0a.09.09,0,0,1,0-.06Zm4.22,0v0h0v0Zm-.06,0v0h0v0Zm-4.09,0v0H6.3v0Zm4.24,0a.27.27,0,0,1,0,.08h.06l0-.08Zm.62,0h0v0h0Zm-.34.06v0a0,0,0,0,0,0,0Zm-.37,0v0a0,0,0,0,0,0,0Zm.12.08v0h0v0Zm.47,0v0h0v0Zm.15,0h0v0h0Zm-.34.06v0a0,0,0,0,0,0,0v0Zm.16.08v0h0v0Zm-.22,0V23h0V23Zm-.25.05v0h0v0Zm.31,0v0a0,0,0,0,0,0,0h0v0a.09.09,0,0,1,0-.05Zm.1,0v0h0v0Zm-.16.06v0h0v0Zm.43.14v0h0A0,0,0,0,1,11.16,23.21Zm-.8.06v.05h0A.09.09,0,0,1,10.36,23.27Zm.46.05v.06h0v-.06Zm-.31,0v0h0v0ZM7,23.41s0,0,0,0,0,.14.06.14h0l0,0a.09.09,0,0,0,0-.06,0,0,0,0,1,0,0,0,0,0,0,0,0,0v0a.09.09,0,0,1-.06,0Zm3.75,0v0a.09.09,0,0,1,.06,0v0Zm.06,0a.09.09,0,0,1,0,.06s0,0,0,0v0h-.07Zm.19,0v0h0v0Zm-.16.06v.08h0l0-.06v0Zm-.4.05v0h0v0Zm.34.06v0h0A0,0,0,0,0,10.79,23.66ZM7,23.71l0,0v.17a0,0,0,0,1,0,0,.37.37,0,0,1,.06.17h0V24c0-.05,0-.17,0-.33Zm4,.09v0h0v0Zm-3.91,0v0h0v0Zm0,.05v0h0v0Zm3.66,0v0h0v0Zm.22,0v0h0v0Zm-.5.17v.05a0,0,0,0,0,0,0l0,0v0h0a.12.12,0,0,1,0-.09v0Zm-.06.05v0h.06v0a.09.09,0,0,1-.06,0Zm-3.35,0v0h0v0Zm3.51,0v0h0v0Zm.27,0v.05h0s0,0,0,0Zm0,.08v0h0v0Zm-3.75.14v.06h0v-.06Z" transform="translate(-0.28 -0.44)"/></g><g id="text18"><path id="path37" class="cls-2" d="M23.83,16.75h.06c.17,0,.25.05.25.09l0,0,.44.31a.87.87,0,0,0,.18.22,1.49,1.49,0,0,0,0,.25c-.16,0-.25.09-.27.14a0,0,0,0,1,0,0c0,.06-.06.12-.16.2h0a.6.6,0,0,1,.12-.23h0l-.18.17a.09.09,0,0,1-.07.09h0l-.06,0c-.06.07-.11.11-.15.11l0,0s-.07,0-.16.17a.53.53,0,0,0-.18.3s-.11.05-.19.14l-.06-.05h0c0,.09,0,.15-.1.17v0a.07.07,0,0,0,0-.06l0,0a1.92,1.92,0,0,1-.31.4h-.06a.05.05,0,0,1,0,.05h0s0,0,0,0,0,0,0,0,.07,0,.07-.09h0v0c0,.11-.11.17-.19.17l-.06.05h0l0,0v0h0v0a.15.15,0,0,0,.06-.11h-.06a0,0,0,0,1,0,0l0,0a.68.68,0,0,0-.09.17l-.1,0,0,0,.06,0a0,0,0,0,1,0,0s0,0,0,0a.09.09,0,0,1,.06,0,0,0,0,0,0,0,0,0,0,0,0,1,0,0l0,0-.09.11a0,0,0,0,0,0,0,.05.05,0,0,0,0-.05v0h0c0,.06,0,.09-.13.11s-.07.14-.09.14l0,0h0l-.06,0s-.06,0-.06.11h0v0h0s0,0-.06,0l0,.06,0,.08-.09,0h0l0,0a.09.09,0,0,0,0,.06h0l0,0a.07.07,0,0,1,0,.06s0,0,0,.05h0s0-.05.06-.05h0l-.09.14s0,0,0,0,0,0,0,0a.34.34,0,0,1,.25.14h.06s0,.05.12.05,0,.09.06.09h0l.09-.09h.09s.07-.08.22-.14a0,0,0,0,0,0,0c.06-.07.1-.11.12-.11V20l.07,0-.07-.06,0,0s0,0,0-.08v0h.07v0l0-.05a.19.19,0,0,0,0-.11v0h0v-.06a.05.05,0,0,0,0-.05l0,0,0-.23c0-.11.08-.16.16-.16h.06l.09,0,.22-.25v.09l-.12.14s.06,0,.06.05l0,0a3.35,3.35,0,0,1,.53.4l.12,0h.06v0l-.06-.06,0,0a0,0,0,0,1,0,0v0h0a1.61,1.61,0,0,1,.37.16c.13,0,.19,0,.19.06l0,0a.38.38,0,0,0,.28.11s0,0,0,0a.62.62,0,0,0,.22.22s.05.08.15.14l.13.2c0,.11-.11.16-.25.16a.09.09,0,0,0-.06,0c-.21,0-.31-.05-.31-.11l-.1,0a0,0,0,0,0,0,0s-.09.07-.28.08c0,0,0,0,0,0l-.31.14s0,.05,0,.05a.23.23,0,0,1,0,.09s0,0-.06.14l-.09.05a0,0,0,0,0,0,0V21a.2.2,0,0,0-.06.14v0h0v.06l-.06.05,0,.09a.39.39,0,0,0,0,.14l0,0,0,.05,0,.09a2.31,2.31,0,0,1-.1.44.09.09,0,0,1,0,.06,0,0,0,0,0,0,0v.36l0,.06a0,0,0,0,0,0,0,.9.9,0,0,1-.06.22.09.09,0,0,1,0,.06.05.05,0,0,0,0,.05,0,0,0,0,1,0,0,0,0,0,0,0,0,0v.17l0,.19,0,.06a0,0,0,0,1,0,0l0,.08v.06l0,0,0,0q0,.09,0,.09a1.1,1.1,0,0,0,.06.28.36.36,0,0,0,0,.11,2.84,2.84,0,0,0,.06.42,0,0,0,0,0,0,0s0,.06.06.19.08.14.1.14l0,.09v0c.08,0,.12.07.12.2s0,.06,0,.06c0,.28-.09.43-.28.47,0,0,0,0-.09,0l0,0h0l-.25-.11s-.08-.07-.19-.11a1.72,1.72,0,0,1-.31-.39s-.05-.06-.09-.17a2.92,2.92,0,0,0-.31-.31,0,0,0,0,0,0,0v0l0,0s0,0,0,0l.31.19,0,0a.05.05,0,0,1,0-.05h0a.38.38,0,0,1,0-.2.39.39,0,0,0,0-.14l0,0a.05.05,0,0,0,0,0l0,0,0,0a0,0,0,0,0,0,0,1.47,1.47,0,0,1,.06-.47,0,0,0,0,0,0,0v-.42l0-.06v-.05a0,0,0,0,1,0,0l0,0,0-.08a.09.09,0,0,1,0-.06,0,0,0,0,0,0,0l0,0a.27.27,0,0,0,0-.12v0l0-.09,0,0a.05.05,0,0,1,0-.05l0-.06,0-.05a0,0,0,0,1,0,0l0-.09a.69.69,0,0,1,0-.22,0,0,0,0,0,0,0l0-.08v0l0-.11h0l0-.11a1.76,1.76,0,0,0,0-.23l0,0a.05.05,0,0,0,0-.05.14.14,0,0,0-.06-.11s0,0,.06-.09l-.06-.08,0,0a.09.09,0,0,1,0-.06l.06,0,0,0V20.9a0,0,0,0,1,0,0,.09.09,0,0,1,0-.06h0a2.65,2.65,0,0,0-.5.31.83.83,0,0,0-.12.17c-.06,0-.12.12-.19.31s-.1.14-.12.14l0,0s0,0,0,0a.16.16,0,0,1,0-.08l-.12.06h-.19s0,.05,0,.05a.16.16,0,0,1,0,.11l0,0v0l-.12.14,0,0v0a0,0,0,0,1,0,0v0a.09.09,0,0,1-.07,0v0a.24.24,0,0,1,.13,0v.11a.61.61,0,0,0-.06.23s-.05.05-.1.17l0,0c0,.08,0,.13-.09.14s0,0-.06.06a0,0,0,0,1,0,0s-.05,0-.09.11h0a1.5,1.5,0,0,0,.12-.34l-.06,0s0,0,0,.08h-.06v0l0-.05v-.06h0s0,.08-.1.14a.23.23,0,0,1,0,.11,0,0,0,0,1,0,0,.09.09,0,0,1-.06,0v0s.06,0,.06,0l0,0v0l-.06,0,0,.09-.15.19s0,0,0,0l-.06.09a.09.09,0,0,1,0,0,0,0,0,0,0,0,0,0,0,0,0,1,0,0l-.09,0v.05h0v0h0v.05l-.06,0a.09.09,0,0,0-.06,0l0,0H21v0l0,.05a.05.05,0,0,1,.06.06.45.45,0,0,1-.19.31s-.06.12-.18.25h0c-.08-.09-.15-.14-.19-.14a0,0,0,0,1,0,0h-.12a.3.3,0,0,1-.19-.14q0-.09,0-.09l0-.28.28.09h.09a.21.21,0,0,0,.13-.11s.08,0,.12-.12.11-.09.22-.28A2.54,2.54,0,0,1,21.1,23v0h0l0-.06s.06-.07.1-.22a5.58,5.58,0,0,0,.37-1v-.05a1.1,1.1,0,0,1-.28-.06l0,0c-.23-.08-.35-.14-.37-.2a0,0,0,0,0,0,0l-.06,0-.13.25a.09.09,0,0,1,0,0h0l0,0a.22.22,0,0,1,0,.14v.05l.06-.05h0v0l-.09.09a.73.73,0,0,0-.16.31c0,.07,0,.11-.06.11l0,0v0h0l0,0v0a.18.18,0,0,0-.06.14.09.09,0,0,1,0,.06h0l.13-.12h.06a.83.83,0,0,1,.22-.14s0,0,.06-.05h0v0a.89.89,0,0,0-.31.3h0s0,0,0,0l0,0c-.08,0-.13.06-.15.17s-.06.05-.13.14v0h0v0a.88.88,0,0,0-.15.39.5.5,0,0,0-.16.22l-.06.06,0,0v0a1.78,1.78,0,0,1-.37.28s-.08.1-.25.19c0,0,0,.06-.12.11s0,.06,0,.06h-.06l-.13,0s-.06,0-.18.06l0,0-.16,0-.28-.17c-.14,0-.29-.15-.43-.45L17.91,23a0,0,0,0,1,0,0l0,0h0l0,0,0-.06,0,0h0v0h.06v-.06s0,0,0,0l-.13.08h0v0a.35.35,0,0,0-.22.11l0,.08h-.09s0,.06,0,.06l0,0v0h-.13v0h0v0s0,0-.12.06h0l0,0-.19.11s0,0-.06.06v0l0,0h0a0,0,0,0,0,0,0l-.06,0a.09.09,0,0,1-.07,0l0-.06v0l0,0a0,0,0,0,1,0,0l.1,0a0,0,0,0,0,0,0v0l0,0,0,0a.09.09,0,0,0,.06,0l0,0,0,0H17a.09.09,0,0,1,0-.06s0,0,0,0a.5.5,0,0,0,.37-.23s.09-.1.19-.31c0,0,.07,0,.09-.11s.1-.1.1-.14v0l-.16-.72a.24.24,0,0,1,.25-.14,1.59,1.59,0,0,1,.22.28l.06,0a.61.61,0,0,0,.15-.3,1.29,1.29,0,0,0,.22-.4s.1-.17.19-.47c0,0,.07-.1.09-.23a.56.56,0,0,0,.12-.33l.07,0,0,0a2,2,0,0,0,.16-.47,1.85,1.85,0,0,1-.34.05.09.09,0,0,0-.06,0,0,0,0,0,0,0,0l-.1,0h-.18l-.1,0-.06,0a1.15,1.15,0,0,1-.49-.19.62.62,0,0,1-.28-.23s0,0-.07-.08a.15.15,0,0,0-.06-.11.09.09,0,0,1,0-.06c0-.15,0-.22-.06-.22l0-.06v0l0-.08.16-.2a0,0,0,0,0,0,0c.06,0,.09-.06.09-.08s.23.1.43.31a2.21,2.21,0,0,0,.41-.14,3.58,3.58,0,0,1,.43-.23,2.29,2.29,0,0,1,.47-.28,3.8,3.8,0,0,0,.4-.36h.06c0-.06,0-.1.13-.11H20s0,0,.06-.06h.09c.09,0,.13,0,.13.06h.09c.06,0,.09.06.09.08h.1c.08.06.12.11.12.17s.09,0,.09.08,0,.14-.12.14v0l0,.06V18l0,.08a1.66,1.66,0,0,0-.28.25q0,.12,0,.12a.26.26,0,0,1,0,.14,1.4,1.4,0,0,0-.28.25s-.05,0-.09.11l0,0a.59.59,0,0,0-.15.25c-.07,0-.1.08-.1.14h0v0a0,0,0,0,1,0,0s0-.06,0-.06l0,0,0,0v0l-.06.09,0,0h0v0l0,0v0s0,.05-.06.05-.07,0-.07-.05h0a.83.83,0,0,1-.15.28v.11h0s0-.06,0-.06l0,0v0h0v0q.09,0,.09-.06h0v.09s-.07.08-.09.25c0,0,.06-.09.13-.25t.09-.12l0,0a.13.13,0,0,1-.09.14l0,0s0,.07-.1.08,0,0,0,0a.31.31,0,0,1-.1.23s0,0,0,0v0l-.09.11a0,0,0,0,1,0,0s0,0-.09.14h0l0,0v0a.09.09,0,0,0-.06,0l-.07,0,0,.11h.07l0,.11h0v0s0,0,0,0a.09.09,0,0,1,0-.06c0,.06-.07.08-.09.08s0,0,0,0,0,0,0,0a.09.09,0,0,1,0,.06l0,0h0l.06,0s0,0,.07-.06h0s0,0,.06.06l-.13.17a0,0,0,0,0,0,0c0,.07,0,.11-.06.11h0l0-.05,0,0a.36.36,0,0,1,0-.11h-.06s0,.06-.09.08a.08.08,0,0,1-.07.08l0,0c0,.07-.07.14-.21.19s0,.06,0,.06v-.09s-.06,0-.1.12v0h0v0h.07v0h0l.06,0,0,0s-.06.07-.19.09v.08h0l.1,0v0s0,0-.06,0v0h0v0c-.07,0-.1.07-.1.11l.13,0s0,0,.06,0,0,0-.09.08h0v0h0l-.09.09a.05.05,0,0,1-.06-.06h0a.23.23,0,0,1,0,.09v0l.09,0s0,0-.06,0v0l.06.06h-.06v0s0,0,0,0,0,0,.06-.05v0h0l0,0,.13,0v0s0,0,0,0l0,0v0c0,.06,0,.1-.1.14l0,0v0a.7.7,0,0,0,0,.14v0h0a4.13,4.13,0,0,1,.44-.65,3.45,3.45,0,0,0,.28-.39,0,0,0,0,0,0,0l0,0c.06,0,.09-.07.09-.11h0l0,0c0-.07,0-.11.09-.11s.05-.1.13-.14a.83.83,0,0,0,.12-.17,0,0,0,0,1,0,0v0s.13-.09.37-.16l.07,0s.05,0,.15-.05a1.68,1.68,0,0,1,.62.14l.09,0a0,0,0,0,1,0,0h.16q.09,0,.09-.06l.1,0a.57.57,0,0,0,.27-.14.28.28,0,0,0,.13-.06s0,0,0,0a.27.27,0,0,0,0-.12.05.05,0,0,1,0-.05h-.13l0,0a0,0,0,0,0,0,0l0,.14h-.06a.2.2,0,0,0,0-.11c.06-.13.1-.2.12-.2a.09.09,0,0,1,0-.06s.08-.09.12-.28c.07,0,.17-.15.31-.42l.47-.78v0a0,0,0,0,0,0,0c-.08,0-.13.07-.13.09l-.06,0-.18,0a.09.09,0,0,1,0-.06l-.07.06H22a0,0,0,0,1,0,0s0,0-.06-.09l-.09,0s-.05,0-.13-.06l-.09,0c0-.05-.06-.09-.19-.11s-.1-.08-.12-.08,0-.12-.06-.12v0l0,0s-.05,0-.1-.09l0,0c-.07,0-.12-.1-.16-.28a0,0,0,0,1,0,0l.06,0,0-.06a.13.13,0,0,1,.09-.14.61.61,0,0,1,.16-.19h0l.09,0a.1.1,0,0,1,.06-.09c.07.06.11.09.13.09l0,0,.15,0s.06,0,.16-.06a0,0,0,0,0,0,0l.28-.11s0,0,.09-.06a0,0,0,0,0,0,0s.14-.1.41-.17a3,3,0,0,0,.43-.2.73.73,0,0,1,.25-.11s.07-.05.22-.11.19-.22.21-.22,0,0,0,0l.1,0ZM24.2,18c.05,0,.07,0,.07.06a.15.15,0,0,0-.1.19l-.06,0,0,0s0,0-.06.11l0,0h0l-.06.14h0l0,0v0l0,0q0,.09-.06.09s0,0,0,0l0,0h0v0l0,0v0s0,0-.06.06a0,0,0,0,0,0,0s0,0-.06.11h-.07v0s.06,0,.1-.14.05,0,.09-.12.06,0,.06-.08l0,0q0-.09.06-.09l0,0c.11-.08.16-.15.16-.23h0l0,0s0-.08.09-.14Zm.22,0v0a0,0,0,0,1,0,0v0A0,0,0,0,1,24.42,18.07Zm-.28.22h0v0h0Zm-.12.17h0v0a0,0,0,0,1,0,0h0v0A0,0,0,0,1,24,18.46Zm.18,0,0,0c-.09,0-.13.06-.13.08s0,0-.06,0,.06-.08.19-.14Zm-.06.11h0a.16.16,0,0,1-.09.14h0A.36.36,0,0,0,24.14,18.6Zm-.25,0h0v0s0,0,0,0h0v0A0,0,0,0,1,23.89,18.63Zm.1,0h0a0,0,0,0,1,0,0l0,0h0s0,0-.06.05Zm0,.05h0v0A0,0,0,0,1,24,18.71Zm-.44,0h0l0,0a.27.27,0,0,0,0,.08l0,0a.12.12,0,0,0,0-.09Zm.31,0h0a0,0,0,0,1,0,0l0,0a0,0,0,0,0,0,0c0,.09-.06.14-.12.14v0C23.77,18.79,23.81,18.74,23.83,18.74Zm-.9.11.07,0v-.06s-.05,0-.07.06Zm1.12-.08h0v0h0Zm-.09,0h0v0a.17.17,0,0,0-.1.05h0v-.05l.07,0Zm-.47,0,0,0a0,0,0,0,1,0,0h0v0s0,0,.06-.05Zm-.22,0,0,0,0,.09h-.06Zm.16.06,0,0v0l-.06,0,0,0Zm-.37.11v0h0v0Zm.15,0h0v.06h0Zm-.28.12h0s.05,0,.07-.09h0S23,19.05,22.93,19.11Zm-.21.05v0h0v0Zm.24,0a.09.09,0,0,1,0,.06h0Zm-.27.09s0,0,0,.05h.07v-.05Zm.37,0,0,0-.06,0v0S23,19.25,23.06,19.25Zm-.31.19v.06h0v-.06Zm-.1,0v0h0v0Zm0,.06v0h0v0Zm-.06.08a0,0,0,0,1,0,0,0,0,0,0,0,0,0,.09.09,0,0,1,0-.06v0Zm.19,0h.06v0h-.06Zm0,.08,0,0v0h0a0,0,0,0,1,0,0Zm-.13,0h0v0h0Zm-.12,0v0s0,0,0,0v0A0,0,0,0,1,22.47,19.78Zm0,.08h.06a.54.54,0,0,1-.09.17l-.09,0a.17.17,0,0,1,.09-.14Zm.12,0v0a.2.2,0,0,1-.09.11,0,0,0,0,0,0,0,.2.2,0,0,1,.09-.11Zm-2.85,0,0,0-.06,0h0v0s0,0,.06-.06Zm2.67,0v0h0a.05.05,0,0,1,0-.05h0S22.44,20,22.44,20Zm-.25,0v0h0v0Zm.65.05h0v0h0Zm-.71.06v0h0v0Zm.25,0h0v0s0,0-.07.05l0,0Zm.06,0v0h0A0,0,0,0,1,22.44,20.06Zm.18,0v.05h0v0A0,0,0,0,1,22.62,20.06Zm-.12.05h.06v0H22.5Zm.15,0v0s0,0-.06.06h0s0-.05.06-.09Zm-3.31.09h0v0A0,0,0,0,0,19.34,20.23Zm3.16,0h0v0h0Zm.46,0h0v0s0,0,0,0h0A.09.09,0,0,0,23,20.25Zm-.46,0h0v0h0Zm-3.13.09v0h0S19.39,20.37,19.37,20.37Zm-.06,0a.12.12,0,0,1,0,.09h.06l0,0,0,0a.11.11,0,0,1,.06-.11v0h0a.09.09,0,0,1-.06,0h0v0Zm-.07.12v0h0v0Zm.16,0v0h0v0Zm0,.11,0,.08h0a.05.05,0,0,1,0-.05v-.06h0a0,0,0,0,0,0,0Zm2.32,0v0a0,0,0,0,0,0,0Zm.07,0v.05h0v-.05Zm-2.55.17a.05.05,0,0,1,0,.05h0c0-.05,0-.08.06-.08l0,0,0,0a0,0,0,0,1,0,0Zm-.09,0v0a0,0,0,0,0,0,0v0S19.12,20.8,19.12,20.81Zm.25,0,0,0v0h0a.05.05,0,0,1,0-.05Zm2.14.08h0v0h0Zm.09.08h0v0a.09.09,0,0,0,0,.06h0v0a0,0,0,0,1,0,0Zm-.15.06h0v0a.1.1,0,0,0-.07.05h0v0S21.4,21,21.45,21Zm1.82.08s0,0-.09.06a0,0,0,0,0,0,0v0s0,0,.06,0a.32.32,0,0,1,.16-.06v0Zm-4.31,0v0h0v0Zm-.06.06a.1.1,0,0,1,0,.08v0h.06v-.11Zm0,.33h0v0l0,.06s.06,0,.06,0a.62.62,0,0,1-.12.19c0-.05,0-.08-.09-.08s0,0,.09-.06a.09.09,0,0,0,.06,0l0-.06h-.06v0a.17.17,0,0,0,.06-.12Zm.31.79a0,0,0,0,1,0,0,.26.26,0,0,1-.09.14.25.25,0,0,1-.06.19l0,0L19,23l0,0a.09.09,0,0,1-.06,0l0,0v0l-.06,0,0,0v0a.05.05,0,0,0-.06.06s0,0-.06,0v0l0,.09s-.06,0-.06,0l0,0,0,0v0h0a2.57,2.57,0,0,0,.31.7.1.1,0,0,0,.06.09.62.62,0,0,1,.28-.17c0-.08,0-.11,0-.11l0,0,.09-.34s.07-.26.16-.67l0,0,0,0v-.05l0,0a0,0,0,0,1,0,0,.09.09,0,0,1,.06,0v-.05l0-.09s0,0,.06-.11l0,0a.32.32,0,0,1,0-.14s0,0,0,0c0-.19.07-.31.09-.37s0-.08,0-.08-.16.08-.16.14a1,1,0,0,0-.24.31s0,0-.07.14Zm-.37-.59v0h0v0Zm.59.06,0,0v0h0l0,0v0h0s0-.05.06-.09,0,0-.06-.05Zm.22,0h0v0h0Zm-.78.11c0,.07,0,.11-.06.11l0,0s-.07,0-.09.08a.09.09,0,0,1,0,.06h0s0,0,0-.11h0l0,0a0,0,0,0,0,0,0l-.1,0v0A.63.63,0,0,1,18.87,21.88Zm-.09.05v0h0v0Zm-.13.12h0v0h0Zm3.2.14v0s0,0,0,0v0A0,0,0,0,0,21.85,22.19Zm2.48-.06,0,0a0,0,0,0,1,0,0l0,0A0,0,0,0,1,24.33,22.13Zm-5.68.06s0,0,.07,0v0h0l0,0v0s0,0-.07.05h0l0-.08,0-.06Zm-.31.11,0,0a.09.09,0,0,1,.06,0v0h0A.09.09,0,0,1,18.34,22.3Zm3.48,0v0h0v0Zm-1,0v.05s0,0,0,0h0a0,0,0,0,0,0,0S20.79,22.32,20.86,22.3Zm-2.33,0s0,0,0,0v0a0,0,0,0,1,0,0Zm3.41,0h0v0a.09.09,0,0,0,0,.06,0,0,0,0,1,0-.06Zm-3.35,0h.06s0,0-.06.06h0v0A0,0,0,0,1,18.59,22.38Zm3.2,0v.06h0a.09.09,0,0,1,0-.06Zm-3.2,0,0,0,0,0h0s0,0,.06,0Zm.59,0h0l0,.08,0,0,0,0Zm1.61.05v.06h0v0A0,0,0,0,1,20.79,22.52Zm-2.41.17v0h0q0-.09,0-.09l0,0v0h0l0,0v0h0s-.06,0-.06.14Zm3.53-.14h0a0,0,0,0,1,0,0Zm-.12.06v0h0v0Zm-2.17,0v0h0v0Zm-1.24.12h0v0A0,0,0,0,0,18.38,22.75Zm2.63,0v0h0A0,0,0,0,1,21,22.72Zm.71.05v.06a.1.1,0,0,0,.07-.06v0Zm-1.14,0v.06h0v0A0,0,0,0,1,20.58,22.8Zm-3,.09h0v0A0,0,0,0,0,17.6,22.89Zm4.06,0,.06,0v-.05h0A0,0,0,0,0,21.66,22.89Zm-.06,0a.05.05,0,0,1,0,.05h.06v0a.09.09,0,0,1-.06,0Zm-1.3.05v0h0v0Zm1.42,0,0,0h0l0,.06v0h0a.87.87,0,0,1,0-.14l0,0a0,0,0,0,0,0,0Zm-.06,0v0h0v0Zm-1.33,0,0,.05s0,0,0-.05v0Zm1.24,0v0s0,0,0,0Zm-3.85,0v0h0v0Zm2.58,0v0h0v0Zm-2.58.06v0h0s0,0,.06-.06h0A.09.09,0,0,1,17.72,23.14Zm2.21.08v.06a0,0,0,0,0,0,0,.39.39,0,0,1,0-.14s0,0-.06.08Zm.12,0a.68.68,0,0,1-.09.22.09.09,0,0,1,0,.06s.07-.06.09-.06v0a0,0,0,0,1,0,0,.5.5,0,0,1,0-.14v0Zm-.28.08v0a0,0,0,0,0,0,0v0A0,0,0,0,0,19.77,23.25Zm.53,0v0h0v0Zm-.72,0v.06h0v-.06Zm.31.06s0,.05,0,.05H19.8l0,0h0s-.05,0-.09.12v0l.06,0h0s0,0,0,0,0-.08.06-.08v.11c.05,0,.07,0,.07.09h0s0-.06,0-.06a.34.34,0,0,0-.09-.17Zm1.68,0h0v.06l0,.06h0v0a.16.16,0,0,0,0-.11Zm.09,0h0v0h0Zm-2,.06v0h0v0Zm1.79.25h0s0,0,0,0a.2.2,0,0,0-.07.11h0l0-.06S21.41,23.73,21.41,23.67Zm.13.08h0v0h0Zm-.22.09h0v0h0Zm-4.43.05h0a0,0,0,0,1,0,0Z" transform="translate(-0.28 -0.44)"/></g></svg>